<svg width="106" height="116" viewBox="0 0 106 116" fill="none" xmlns="http://www.w3.org/2000/svg">
<path fill-rule="evenodd" clip-rule="evenodd" d="M42.3082 0.067627H63.9508V10.6485H69.7222C72.6078 10.6485 74.5316 12.5723 74.5316 15.4579V37.5815L71.646 41.4291L101.465 93.3714L105.793 112.128C106.274 114.533 103.388 116.457 101.465 114.533L87.5172 101.547L77.8983 84.7143C70.2031 89.0429 62.027 91.4476 52.889 91.4476C43.751 91.4476 35.5749 89.0429 28.3607 84.7143L18.7418 101.547L4.7943 114.533C2.87051 116.457 -0.496115 114.533 0.465779 112.128L4.7943 93.3714L15.8561 73.6525C8.64188 65.4764 4.7943 54.4147 4.7943 42.8719C4.7943 40.9481 4.7943 39.0243 5.27525 37.5815H19.7037C19.2227 39.5053 19.2227 40.9481 19.2227 42.8719C19.2227 49.1242 21.1465 54.8956 24.0322 60.186L35.094 41.4291L32.2083 37.5815V15.4579C32.2083 12.5723 34.1321 10.6485 37.0178 10.6485H42.7891V0.067627H42.3082ZM45.1939 54.8956L35.5749 72.2097C40.8653 75.0954 46.6367 77.0192 52.889 77.0192C59.1413 77.0192 65.3936 75.0954 70.2031 72.2097L60.1032 54.8956L56.2556 59.7051C54.3319 62.1098 50.4843 62.1098 48.5605 59.7051L45.1939 54.8956ZM43.751 37.5815C45.6748 40.9481 49.0414 42.8719 52.889 42.8719C56.7366 42.8719 60.5842 40.9481 62.027 37.5815C62.9889 36.1387 63.4699 34.2149 63.4699 32.2911C63.4699 26.5197 58.6604 21.7103 52.889 21.7103C47.1176 21.7103 42.3082 26.5197 42.3082 32.2911C42.3082 34.2149 42.7891 36.1387 43.751 37.5815Z" fill="white"/>
</svg>
