<svg width="83" height="116" viewBox="0 0 83 116" fill="none" xmlns="http://www.w3.org/2000/svg">
<path d="M41.9879 22.8766C54.8493 22.8761 67.7103 22.8735 80.5717 22.8787C83.0296 22.8797 83.0532 22.8954 82.8408 25.3926C81.8129 37.4872 80.7657 49.5797 79.7363 61.6743C78.7843 72.8582 77.848 84.0432 76.9012 95.2276C76.6481 98.2186 76.2866 101.205 76.1585 104.2C76.0847 105.93 75.3765 106.729 73.734 107.176C65.551 109.406 57.2953 111.434 49.2634 114.126C44.0122 115.887 39.2475 115.594 34.0921 113.928C26.1523 111.364 18.0462 109.308 9.98292 107.139C8.35876 106.701 7.8723 105.928 7.75984 104.288C7.31313 97.7792 6.69171 91.2821 6.12365 84.7818C5.52211 77.8902 4.90645 71.0003 4.29916 64.1097C3.56057 55.7243 2.81414 47.3399 2.09073 38.9534C1.67017 34.0773 1.30349 29.1959 0.880848 24.3198C0.740664 22.7061 1.86737 22.9059 2.81623 22.9028C9.47553 22.8824 16.1348 22.8808 22.7941 22.8777C29.1919 22.875 35.5902 22.8771 41.9879 22.8766ZM37.037 50.3622C37.0668 50.539 37.0961 50.7164 37.1259 50.8932C36.4967 51.2216 35.8716 51.559 35.2366 51.8771C30.0999 54.4527 24.9816 57.0655 19.81 59.5684C18.4615 60.2212 18.0064 61.0722 18.2041 62.4997C18.4897 64.5654 18.9082 66.6535 18.837 68.7175C18.7575 71.0316 19.9052 71.1891 21.7129 71.1812C31.7675 71.1383 41.8221 71.2058 51.8762 71.1666C53.5218 71.1603 54.3352 71.6154 54.1756 73.386C53.89 76.5679 53.652 79.755 53.4491 82.9432C53.379 84.0427 52.8193 84.4658 51.8249 84.8022C45.9408 86.7914 40.0698 88.3675 34.0173 85.4142C33.5005 85.162 32.8895 85.0951 32.3162 84.9701C31.1743 84.7221 30.5618 84.1337 30.3976 82.8699C30.1946 81.3043 30.1611 79.7456 30.1198 78.1795C30.089 77.0151 29.5863 76.3367 28.3398 76.3409C25.8588 76.3498 23.3779 76.3482 20.8969 76.3325C20.0182 76.3267 19.562 76.6254 19.6457 77.6036C20.0019 81.7662 20.332 85.931 20.6526 90.0962C20.7641 91.5483 21.5414 92.1676 22.9422 92.5364C28.6824 94.0491 34.386 95.6984 40.1069 97.2839C41.1081 97.5611 42.0957 97.7975 43.1753 97.4931C49.3293 95.7575 55.4943 94.0596 61.6614 92.3716C62.5166 92.1378 63.024 91.7157 63.1161 90.7877C63.3467 88.4511 63.6684 86.1229 63.8672 83.7837C64.4478 76.9597 64.872 70.1199 65.6096 63.3136C65.8324 61.2558 65.143 60.9906 63.4571 61.0105C58.5611 61.0686 53.664 61.0419 48.7675 61.0173C48.0938 61.0137 47.3369 61.2626 46.761 60.6841C46.7981 60.2207 47.1643 60.1746 47.4363 60.0381C52.1053 57.6989 56.8187 55.4434 61.437 53.0074C67.4414 49.8407 66.503 51.8677 67.0982 45.0776C67.161 44.3636 67.342 43.6585 67.3865 42.9445C67.5408 40.4599 67.3404 40.2433 64.8626 40.2417C55.7218 40.2344 46.5816 40.2381 37.4408 40.2386C31.2387 40.2386 25.0355 40.2883 18.8339 40.2088C17.0141 40.1852 16.3524 40.814 16.5575 42.6165C16.7866 44.6235 16.8854 46.6463 16.9979 48.6643C17.067 49.8972 17.6884 50.3769 18.8873 50.3664C22.021 50.3382 25.1548 50.3612 28.2885 50.3622C31.2047 50.3628 34.1208 50.3622 37.037 50.3622Z" fill="white"/>
<path d="M41.5757 0.0955105C43.4687 0.0976028 45.3623 0.114341 47.2553 0.0928951C49.38 0.0693567 48.6268 1.67939 48.7952 2.7653C48.9788 3.95321 48.6174 4.62902 47.26 4.60182C44.9109 4.55579 42.5596 4.58404 40.21 4.61176C39.6581 4.61804 38.8092 4.4517 38.7726 5.22742C38.7255 6.23801 39.678 5.94508 40.257 5.95502C42.4759 5.99373 44.6974 6.01622 46.9153 5.95921C48.2047 5.92625 48.8538 6.32013 48.8047 7.73244C48.7309 9.82109 48.7586 11.915 48.7942 14.0057C48.8135 15.1308 48.4191 15.6864 47.2119 15.6754C43.3599 15.6403 39.5075 15.6225 35.6566 15.6858C33.9629 15.7136 34.0225 14.6721 33.989 13.4931C33.9524 12.1885 34.2035 11.3783 35.7931 11.4416C38.1391 11.5347 40.4924 11.4641 42.8426 11.4395C43.4687 11.4332 44.3554 11.5865 44.4019 10.6915C44.4589 9.59616 43.4724 9.81429 42.806 9.80487C40.4563 9.77035 38.1051 9.74001 35.756 9.79023C34.5205 9.81638 33.9775 9.39792 34.0183 8.0965C34.0832 6.00785 34.0581 3.9145 33.9963 1.8248C33.9592 0.581972 34.4237 0.0405874 35.7005 0.078249C37.6573 0.136311 39.6173 0.0934182 41.5757 0.0955105Z" fill="white"/>
<path d="M58.2326 0.0975143C60.1884 0.0969913 62.1452 0.138314 64.0994 0.0833912C65.5248 0.0431143 65.6859 0.90253 65.6221 1.98635C65.5573 3.09109 66.0113 4.53426 64.1371 4.5646C61.6608 4.60435 59.183 4.57244 56.7063 4.61324C56.1189 4.62318 55.1752 4.38623 55.2526 5.38897C55.3128 6.17463 56.1602 5.95389 56.7052 5.95964C59.0517 5.98475 61.3998 6.013 63.7453 5.95912C65.0195 5.9293 65.6922 6.2918 65.6409 7.71561C65.5656 9.80112 65.5949 11.8924 65.6315 13.98C65.6509 15.0868 65.2952 15.6857 64.0785 15.6763C60.1669 15.6444 56.2554 15.6366 52.3443 15.6737C50.7107 15.6894 50.8713 14.5904 50.8551 13.5385C50.8384 12.4442 50.8049 11.418 52.4008 11.4561C54.7463 11.5121 57.0939 11.4771 59.4404 11.4509C60.0524 11.4441 60.9223 11.6471 60.9829 10.7071C61.0551 9.58038 60.0906 9.79903 59.4242 9.79066C57.1425 9.76189 54.8598 9.73835 52.5797 9.78857C51.3364 9.81577 50.8107 9.34448 50.8447 8.07392C50.9027 5.92198 50.8844 3.7669 50.8556 1.61392C50.841 0.545269 51.2872 0.0713605 52.3658 0.0891451C54.321 0.12053 56.2768 0.0980374 58.2326 0.0975143Z" fill="white"/>
<path d="M17.5351 8.01168C17.5351 5.98842 17.5801 3.96411 17.5189 1.94294C17.4796 0.637339 17.9159 0.0494004 19.3062 0.0718928C23.0206 0.131524 26.7381 0.140416 30.4525 0.0682312C32.0118 0.0378927 32.3 0.823032 32.2817 2.12968C32.2634 3.45882 32.2681 4.64202 30.4138 4.59913C28.0683 4.54473 25.7202 4.62371 23.3742 4.58971C22.2339 4.57297 21.7051 4.98359 21.7307 6.18614C21.8662 12.585 20.7886 11.3123 26.7235 11.4588C28.0265 11.4907 29.3341 11.5168 30.6335 11.4405C32.0045 11.3604 32.3392 12.1225 32.2571 13.2508C32.1813 14.2876 32.5437 15.6465 30.7757 15.6476C26.7339 15.6512 22.6926 15.6361 18.6513 15.6596C17.6329 15.6654 17.5063 15.0994 17.5178 14.2766C17.5466 12.1885 17.5272 10.0998 17.5272 8.01168H17.5351Z" fill="white"/>
</svg>
