<svg width="94" height="116" viewBox="0 0 94 116" fill="none" xmlns="http://www.w3.org/2000/svg">
<path d="M46.6197 82.2186C29.7797 82.1926 15.8207 69.7711 13.8738 53.0896C13.0324 45.883 14.5115 39.1644 17.9805 32.8325C18.3853 32.0939 18.955 31.755 19.7133 31.544C22.4118 30.793 25.16 30.4614 27.9495 30.6515C29.2589 30.7407 29.8475 30.3812 30.0935 28.9678C32.1514 17.1466 38.2749 7.80271 47.6546 0.470688C48.3593 -0.0800822 48.7909 -0.0981588 49.3914 0.614453C57.1507 9.8239 65.07 18.9051 72.304 28.541C75.9377 33.381 78.5633 38.7772 79.2767 44.8475C80.8017 57.822 76.2402 68.3137 65.7699 76.0996C60.1306 80.2934 53.6608 82.2417 46.6197 82.2186ZM73.8411 50.4925C73.8145 42.95 71.5049 37.2155 67.6925 32.073C61.7501 24.0578 55.1623 16.5611 48.8047 8.87968C48.0421 7.95806 47.5527 8.07555 46.8121 8.86019C44.4466 11.3669 42.3201 14.0363 40.5813 17.028C38.2153 21.0997 36.6017 25.4248 35.7933 30.0626C35.5928 31.2133 35.8656 31.7912 37.1069 32.1501C40.4949 33.1308 43.4916 34.8791 46.0952 37.2796C52.8279 43.4873 56.894 56.1053 52.3729 66.1121C51.9156 67.1243 52.0568 67.7183 52.9635 68.3346C54.9491 69.6844 56.9765 70.9577 59.0598 72.1525C59.9518 72.6642 60.6409 72.6484 61.4979 72.0584C69.4253 66.6015 73.4914 59.0588 73.8411 50.4925ZM19.432 49.2218C19.3292 50.4089 19.5289 51.5751 19.7026 52.7337C21.2352 62.9532 26.7971 70.1118 36.1783 74.3606C36.8858 74.6809 37.5154 74.6634 38.1608 74.2036C40.0424 72.8631 41.8071 71.4031 43.3527 69.6689C44.0478 68.8891 43.9777 68.4033 43.2547 67.6881C40.7745 65.2356 38.5443 62.5645 36.7304 59.5746C32.7053 52.9399 30.6528 45.6567 29.8051 38.0058C29.6775 36.8532 29.2131 36.4315 28.1373 36.4357C26.6347 36.4416 25.1394 36.3964 23.6371 36.6306C22.7753 36.7648 22.3215 37.1523 21.9625 37.8951C20.2319 41.4779 19.5515 45.2867 19.432 49.2218ZM48.4008 56.8552C48.4407 55.4265 48.3472 54.1183 48.0667 52.8232C46.6689 46.3699 43.5535 41.2048 37.2736 38.4108C36.8578 38.2261 36.3974 37.803 35.9752 38.1228C35.5704 38.4289 35.7693 39.0108 35.8277 39.4613C36.1187 41.7019 36.6367 43.8962 37.2222 46.0767C38.8753 52.2304 41.7741 57.6988 46.1562 62.3516C46.4356 62.6481 46.6604 63.1673 47.1194 63.0817C47.5987 62.9921 47.5778 62.4129 47.6899 62.0318C48.1975 60.3098 48.5079 58.5544 48.4008 56.8552ZM53.1346 75.5283C51.7292 74.5462 50.5133 73.6909 49.2905 72.845C48.9513 72.6103 48.5867 72.5521 48.2692 72.8792C47.2129 73.968 46.1658 75.0656 45.0428 76.2352C47.3934 76.6193 50.6135 76.349 53.1346 75.5283Z" fill="white"/>
<path d="M44.1413 113.833C43.8419 115.239 42.7573 114.965 41.8128 114.869C40.7403 114.76 41.0194 113.862 41.0171 113.215C40.9979 108.002 41.0369 102.788 40.9838 97.5748C40.9713 96.3493 41.3772 95.9228 42.6002 95.9195C43.88 95.9158 44.2257 96.4939 44.1924 97.6413C44.1447 99.276 44.1802 100.913 44.1802 102.695C45.7252 101.766 47.3227 100.971 49.2363 101.407C51.151 101.844 52.5299 102.93 53.4885 104.603C55.149 107.502 54.6341 111.282 52.2723 113.563C50.0503 115.709 47.3162 115.813 44.1413 113.833ZM51.2278 108.328C51.225 105.971 49.7475 104.265 47.6794 104.229C45.5899 104.193 43.9726 105.995 43.9882 108.342C44.0037 110.711 45.4611 112.301 47.6261 112.31C49.7687 112.319 51.2309 110.702 51.2278 108.328Z" fill="white"/>
<path d="M67.1076 109.823C67.1076 111.221 67.1205 112.348 67.1022 113.475C67.0932 114.025 67.1872 114.738 66.4345 114.832C65.6363 114.931 64.5365 115.329 64.1057 114.472C63.6086 113.484 63.3584 114.089 62.9457 114.379C61.3321 115.514 58.879 115.579 57.2157 114.54C55.5199 113.48 54.7734 111.646 55.231 109.666C55.6247 107.961 57.2999 106.586 59.3708 106.368C60.4881 106.251 61.6185 106.237 62.737 106.477C63.1064 106.557 63.5883 106.918 63.8419 106.375C64.0348 105.961 63.747 105.562 63.4849 105.22C62.4489 103.869 60.3393 103.65 58.7923 104.731C57.7501 105.46 56.8042 105.31 55.9484 104.352C55.5532 103.911 55.7066 103.569 56.0331 103.259C58.0529 101.338 60.4571 100.894 63.0872 101.557C65.3194 102.121 66.5949 103.593 66.9756 105.876C67.2101 107.281 67.0409 108.689 67.1076 109.823ZM61.1759 108.749C60.0546 108.783 58.9801 108.977 58.4995 110.157C58.2441 110.783 58.2582 111.496 58.8305 111.981C59.8001 112.804 60.8999 112.712 62.0094 112.283C62.1399 112.232 62.2661 112.165 62.3836 112.089C63.2129 111.555 63.9775 110.8 63.799 109.833C63.6047 108.781 62.4325 108.933 61.597 108.753C61.4626 108.724 61.3166 108.749 61.1759 108.749Z" fill="white"/>
<path d="M87.8397 109.028C86.6635 109.028 85.4874 109.015 84.3116 109.032C83.0966 109.049 82.9138 109.368 83.4549 110.467C84.4814 112.553 87.6383 113.008 89.3671 111.316C89.7857 110.906 90.0532 110.343 90.8743 110.649C92.7488 111.348 92.9237 112.094 91.4338 113.487C89.0839 115.686 85.1064 115.92 82.565 114.009C79.9174 112.018 79.0909 107.932 80.7056 104.813C82.1959 101.935 85.6196 100.568 88.7876 101.645C91.9092 102.706 92.9178 105.465 93.0104 108.025C93.0353 108.715 92.6218 109.027 91.932 109.021C90.5681 109.009 89.2038 109.018 87.8397 109.018V109.028ZM86.4032 106.598C87.1073 106.598 87.8115 106.608 88.5153 106.594C88.8794 106.587 89.3307 106.678 89.501 106.241C89.6798 105.783 89.3536 105.438 89.074 105.121C87.8233 103.707 85.1443 103.784 83.9385 105.278C83.6852 105.592 83.2734 105.932 83.5293 106.38C83.7428 106.754 84.2133 106.58 84.5729 106.593C85.1821 106.617 85.7931 106.6 86.4032 106.598Z" fill="white"/>
<path d="M34.457 109.031C33.1863 109.031 31.9153 109.054 30.6454 109.024C29.6108 108.999 29.5724 109.472 29.915 110.259C30.9188 112.563 34.1664 113.132 35.9636 111.305C36.7697 110.485 38.2808 110.572 38.9216 111.487C39.3334 112.075 38.8507 112.452 38.5426 112.835C35.647 116.437 29.8404 116.056 27.4425 112.114C25.9232 109.616 26.0972 106.243 27.8678 103.863C29.458 101.726 32.1345 100.848 34.9295 101.546C37.7227 102.244 39.6597 104.98 39.5026 107.896C39.4555 108.77 39.0612 109.04 38.2686 109.027C36.9985 109.007 35.7275 109.022 34.457 109.022V109.031ZM32.9815 106.596C33.7331 106.596 34.4847 106.595 35.2363 106.597C36.3147 106.6 36.3087 106.087 35.8192 105.36C34.7849 103.823 32.0469 103.657 30.7163 105.059C30.3977 105.394 29.9319 105.762 30.0675 106.241C30.2378 106.844 30.862 106.555 31.2914 106.589C31.8514 106.634 32.4177 106.6 32.9815 106.596Z" fill="white"/>
<path d="M0.0531426 105.383C0.0522953 102.747 0.0884484 100.111 0.0347836 97.4758C0.0130353 96.4056 0.352818 95.9229 1.47159 95.9373C4.34237 95.9749 7.21485 95.9837 10.0854 95.9337C11.3196 95.9122 11.5625 96.5031 11.5586 97.588C11.5546 98.6517 11.2389 99.1473 10.1096 99.116C8.27543 99.0646 6.43784 99.1335 4.60279 99.0954C3.64925 99.0756 3.23603 99.4295 3.24874 100.41C3.30551 104.827 2.78129 104.009 6.74175 104.094C7.49447 104.11 8.2503 104.136 9.00047 104.088C10.1303 104.015 10.7062 104.309 10.7276 105.633C10.7508 107.041 10.1144 107.316 8.93466 107.265C7.75997 107.214 6.58132 107.253 5.40465 107.255C3.25919 107.259 3.25891 107.26 3.25552 109.472C3.25326 110.837 3.21569 112.204 3.26117 113.567C3.30156 114.766 2.6282 114.947 1.64303 114.935C0.682715 114.924 0.00964591 114.807 0.0359134 113.574C0.0938149 110.845 0.05399 108.114 0.0531426 105.383Z" fill="white"/>
<path d="M73.5984 115.234C71.477 115.331 69.8447 114.543 68.6627 112.888C68.3416 112.439 67.7202 111.944 68.3851 111.306C69.168 110.554 70.5486 110.419 71.0917 111.055C71.9422 112.051 72.9522 112.651 74.2958 112.406C75.0307 112.272 75.9055 112.134 75.954 111.174C75.9975 110.308 75.2177 110.035 74.5452 109.821C73.6507 109.536 72.7322 109.325 71.8233 109.085C70.8974 108.841 70.0577 108.434 69.3722 107.753C68.019 106.408 68.0444 104.119 69.4196 102.803C71.619 100.699 75.9812 100.791 78.0419 103.02C78.4127 103.421 79.1076 103.829 78.574 104.554C78.1272 105.161 76.3876 105.502 75.9351 105.064C74.9694 104.128 73.8818 103.79 72.5867 104.218C72.11 104.375 71.7337 104.645 71.6928 105.189C71.6502 105.753 72.021 106.081 72.4839 106.23C73.4674 106.546 74.4746 106.787 75.4671 107.076C77.9984 107.813 79.4321 109.444 79.2372 111.347C79.0271 113.401 76.9917 115.076 74.5059 115.232C74.1777 115.252 73.8476 115.234 73.5984 115.234Z" fill="white"/>
<path d="M25.5399 104.505C23.2202 104.356 21.7786 105.585 21.697 107.779C21.6252 109.704 21.6309 111.635 21.6814 113.561C21.7131 114.768 21.053 114.938 20.0752 114.935C19.1131 114.931 18.4319 114.801 18.446 113.581C18.4858 110.149 18.4508 106.717 18.4666 103.284C18.4692 102.75 18.3135 101.991 19.0606 101.887C19.8481 101.777 20.8321 101.391 21.4193 102.194C21.8481 102.781 22.0856 102.653 22.5132 102.323C23.2355 101.764 24.0709 101.439 24.9705 101.331C26.4294 101.155 26.9259 101.645 26.9909 103.092C27.0439 104.277 26.7742 104.974 25.5399 104.505Z" fill="white"/>
<path d="M13.0465 108.29C13.0476 106.553 13.0934 104.813 13.0312 103.078C12.9903 101.942 13.58 101.762 14.5158 101.779C15.4148 101.795 16.2274 101.753 16.2181 103.026C16.1927 106.548 16.1946 110.07 16.2153 113.592C16.2232 114.912 15.3795 114.915 14.4161 114.933C13.3792 114.953 13.0002 114.525 13.031 113.502C13.0835 111.766 13.0454 110.027 13.0465 108.29Z" fill="white"/>
<path d="M14.6576 95.7022C15.756 95.7658 16.6533 96.7834 16.5881 97.8912C16.5209 99.0309 15.5541 99.8675 14.4017 99.7827C13.3287 99.7039 12.5042 98.7863 12.5316 97.7014C12.559 96.6123 13.5922 95.6407 14.6576 95.7022Z" fill="white"/>
</svg>
