<svg width="82" height="116" viewBox="0 0 82 116" fill="none" xmlns="http://www.w3.org/2000/svg">
<path d="M40.9008 22.9051C51.0659 22.9051 61.231 22.9103 71.3961 22.9014C74.3099 22.8994 77.2264 22.9129 80.1377 22.8069C81.4952 22.7576 81.8203 23.3242 81.7086 24.5362C81.1031 31.1155 80.5132 37.6967 79.9424 44.2791C79.2211 52.6027 78.5408 60.9304 77.8117 69.253C77.0997 77.3829 76.3431 85.5086 75.6166 93.6369C75.2998 97.1859 74.956 100.734 74.7379 104.29C74.6626 105.52 74.2367 106.143 73.0366 106.476C62.6825 109.349 52.3382 112.259 41.9997 115.188C41.1277 115.435 40.3545 115.296 39.5324 115.067C29.682 112.316 19.8295 109.572 9.9745 106.838C6.99674 106.012 7.06737 105.963 6.82069 102.897C6.15493 94.634 5.36453 86.3816 4.65151 78.1224C4.06624 71.3448 3.54173 64.5615 2.95438 57.7844C2.21644 49.2661 1.43746 40.7519 0.686012 32.2351C0.45232 29.5892 0.27835 26.9376 0.0181723 24.2948C-0.081017 23.2857 0.217589 22.8916 1.2692 22.8926C8.8455 22.903 16.4223 22.8672 23.9986 22.8557C29.6327 22.8474 35.2667 22.8542 40.9008 22.8542V22.9051ZM40.8816 40.1728C33.2964 40.1728 25.7113 40.1687 18.1262 40.1754C15.5275 40.1775 15.4735 40.3406 15.715 43.0057C16.48 51.4607 17.2517 59.9162 17.852 68.3836C17.9922 70.3622 18.6658 70.9189 20.5524 70.8904C26.5801 70.799 32.6104 70.8545 38.6397 70.8577C42.8534 70.8603 47.0677 70.8608 51.2814 70.8847C52.0869 70.8893 53.1083 70.6946 53.0268 72.0557C52.8217 75.4853 52.6082 78.9138 52.3943 82.3428C52.3205 83.5279 51.7119 84.1838 50.5362 84.4876C47.7142 85.2157 44.9156 86.0342 42.1077 86.8173C41.1449 87.0858 40.1982 87.0468 39.2343 86.7721C36.7431 86.0612 34.2577 85.3196 31.7395 84.7182C30.1587 84.3402 29.2074 83.7206 29.3232 81.8677C29.4068 80.5242 29.0256 79.1574 29.037 77.8025C29.0484 76.3972 28.4009 76.0145 27.1301 76.0389C24.9926 76.0804 22.8494 76.0929 20.715 75.9854C19.0303 75.9007 18.5437 76.6413 18.7058 78.2003C19.1072 82.065 19.5029 85.9313 19.7813 89.8059C19.8727 91.0757 20.4003 91.6111 21.5677 91.9253C27.195 93.4386 32.8073 95.0079 38.419 96.5789C39.9458 97.0057 41.4398 97.1605 43.0071 96.7149C48.5524 95.1378 54.095 93.5461 59.6767 92.1086C61.367 91.6734 61.9751 90.8248 62.1034 89.1667C62.7822 80.3819 63.4957 71.5987 64.3084 62.8254C64.4637 61.1542 63.8634 60.7809 62.4025 60.8022C59.0322 60.8505 55.6603 60.8115 52.2889 60.8162C44.899 60.8266 37.5091 60.8146 30.1198 60.8769C28.5234 60.8904 27.7714 60.434 27.746 58.6927C27.7154 56.6253 27.4531 54.5532 27.1654 52.5004C26.9286 50.8121 27.4609 50.1458 29.2276 50.1873C33.1801 50.2798 37.1363 50.219 41.0909 50.2211C48.4818 50.2242 55.8727 50.192 63.2625 50.2564C64.9326 50.2709 65.5958 49.6691 65.6176 48.0062C65.6426 46.131 65.7438 44.2381 66.0445 42.3903C66.3603 40.4465 65.5403 40.1251 63.8312 40.1412C56.1817 40.2134 48.5316 40.1728 40.8816 40.1728Z" fill="white"/>
<path d="M46.7509 9.3181C46.7509 10.9275 46.7197 12.5373 46.7613 14.1451C46.7909 15.2814 46.3562 15.8672 45.1737 15.7706C45.1093 15.7654 45.0439 15.7701 44.9795 15.7732C41.497 15.9274 41.4954 15.9274 41.4938 12.4922C41.4923 9.18307 41.553 5.87244 41.4705 2.56543C41.4294 0.922317 41.9467 0.315756 43.6817 0.254996C45.8467 0.179695 47.4265 0.605015 48.3229 2.78251C48.7554 3.83412 49.5453 4.73825 50.2734 5.86361C50.9111 4.88885 51.6641 4.10936 51.984 3.1803C52.952 0.365091 55.0469 0.0815443 57.5594 0.290829C58.7668 0.391576 59.2041 0.936858 59.0914 2.01132C58.691 5.82933 59.1288 9.64267 59.1418 13.4576C59.148 15.1895 58.61 15.8765 56.7825 15.8163C53.5627 15.7104 53.5591 15.8116 53.5544 12.6246C53.5529 11.6587 53.5539 10.6922 53.2003 9.56269C52.6441 10.444 52.0785 11.3195 51.5333 12.2076C50.3056 14.2075 50.2843 14.2147 48.9782 12.1842C48.3514 11.21 47.7604 10.2124 47.1534 9.22514C47.0194 9.2563 46.8849 9.28694 46.7509 9.3181Z" fill="white"/>
<path d="M23.0171 7.85211C23.0192 9.9247 22.9834 11.9983 23.0327 14.0694C23.0628 15.3074 22.5752 15.8787 21.3226 15.7779C20.8723 15.7416 20.4112 15.7286 19.9651 15.7852C18.2404 16.0043 17.6915 15.2145 17.7336 13.5526C17.7892 11.3435 15.2871 10.0426 13.3874 11.2038C12.6209 11.6717 12.8489 12.4574 12.8266 13.1372C12.7383 15.82 12.7424 15.6714 9.75586 15.8241C7.40025 15.9441 7.53683 14.5824 7.55449 13.0094C7.59447 9.44745 7.62096 5.8839 7.54358 2.32347C7.51138 0.821609 8.00473 0.27425 9.5445 0.284637C12.7824 0.306967 12.892 0.23634 12.7772 3.41455C12.7077 5.34485 13.4279 5.83872 15.245 5.806C16.9338 5.77536 17.8904 5.56971 17.8047 3.51115C17.6759 0.423813 19.0495 -0.462659 22.1042 0.356302C22.9641 0.586879 23.0046 1.17578 23.0098 1.82908C23.0244 3.83676 23.015 5.84443 23.0171 7.85211Z" fill="white"/>
<path d="M32.439 0.320936C34.3138 0.321456 36.1901 0.364559 38.0627 0.306396C39.3288 0.267447 39.8372 0.810132 39.7417 2.03779C39.7069 2.48804 39.6986 2.94764 39.7474 3.39581C39.9271 5.04567 39.2919 5.74415 37.5585 5.67716C34.5085 5.55928 34.6866 5.40556 34.6841 8.65492C34.6825 10.4673 34.6358 12.2808 34.6924 14.0911C34.7318 15.351 34.2052 15.8734 32.9708 15.7784C32.4572 15.7389 31.9322 15.7275 31.4212 15.7841C29.8503 15.9575 29.3751 15.1744 29.4213 13.7266C29.4826 11.7869 29.3548 9.83948 29.4566 7.90347C29.5418 6.28943 29.1102 5.45282 27.3129 5.6164C26.5697 5.68391 25.393 6.03133 25.1998 4.87482C24.9697 3.49967 24.7739 2.02949 25.3852 0.689651C25.6147 0.186434 26.3101 0.330803 26.8149 0.326649C28.6896 0.311069 30.5643 0.320417 32.439 0.320936Z" fill="white"/>
<path d="M66.6199 15.7846C64.9768 15.541 62.5739 16.6461 61.2824 15.299C60.0895 14.0547 60.9318 11.7095 60.8835 9.85189C60.8186 7.32853 60.9417 4.79894 60.843 2.27766C60.7818 0.710887 61.4164 0.156777 62.8907 0.309456C63.3383 0.356195 63.8005 0.362426 64.2471 0.308937C65.8227 0.120425 66.2761 0.886416 66.2159 2.35037C66.1338 4.35441 66.299 6.37091 66.1671 8.36924C66.0507 10.1354 66.7752 10.7108 68.4214 10.5327C69.1246 10.4569 69.8428 10.5151 70.5542 10.5228C73.1892 10.5509 73.1061 10.5852 73.2438 13.2778C73.3424 15.2034 72.7753 16.0421 70.7557 15.8116C69.4787 15.6661 68.1716 15.7846 66.6199 15.7846Z" fill="white"/>
</svg>
