<svg width="83" height="116" viewBox="0 0 83 116" fill="none" xmlns="http://www.w3.org/2000/svg">
<path d="M41.8093 22.874C54.6386 22.874 67.468 22.8704 80.2974 22.8772C82.8018 22.8787 82.8963 23.138 82.6568 25.6002C82.0015 32.3334 81.4604 39.0776 80.8714 45.8176C80.3053 52.2994 79.7318 58.7806 79.1684 65.2628C78.6894 70.771 78.2193 76.2802 77.746 81.7894C77.0834 89.5035 76.4057 97.2166 75.7733 104.933C75.658 106.346 74.6072 106.517 73.6216 106.795C67.6705 108.472 61.7121 110.124 55.7594 111.796C52.6268 112.676 49.4493 113.433 46.3876 114.516C43.4397 115.56 40.6609 115.557 37.6608 114.672C28.6089 112.004 19.5111 109.491 10.4065 107.007C8.49427 106.486 7.76278 105.644 7.64643 103.53C7.27598 96.7767 6.5784 90.0414 5.99716 83.2998C5.40445 76.4284 4.8013 69.5574 4.20077 62.6864C3.60545 55.8812 3.00282 49.077 2.41324 42.2713C1.89618 36.3071 1.4146 30.3398 0.866764 24.3788C0.721716 22.7947 1.74592 22.8991 2.73464 22.8975C9.83309 22.8855 16.9315 22.8829 24.0305 22.8803C29.9566 22.8782 35.8827 22.8798 41.8093 22.8798V22.874ZM44.9059 57.4616H44.9215C44.9215 62.6134 44.9507 67.7652 44.9033 72.9159C44.8892 74.4233 45.2393 75.0327 46.9386 74.706C50.4479 74.0314 54.0021 73.59 57.5328 73.0213C58.9306 72.7959 59.7534 72.8857 59.4398 74.7447C59.0083 77.3054 58.7417 79.9105 58.6441 82.5052C58.5826 84.1508 57.8245 84.7884 56.3829 85.1489C53.2894 85.9222 50.2319 86.8436 47.1343 87.597C45.4584 88.004 44.7358 88.8664 44.8824 90.6242C45.0128 92.1785 44.8954 93.7527 44.9314 95.3169C44.9747 97.2239 45.3274 97.4649 47.2 96.9458C52.8449 95.3795 58.4767 93.7636 64.1419 92.275C65.5965 91.8931 66.2283 91.1048 66.3296 89.7117C66.471 87.765 66.5873 85.8163 66.7611 83.8722C67.3386 77.391 67.8787 70.9056 68.5695 64.4364C68.7364 62.8732 68.2726 62.6176 66.9155 62.8335C63.3853 63.396 59.8468 63.9057 56.3088 64.416C53.8811 64.7667 53.8649 64.7505 53.8576 62.3718C53.8456 58.6548 53.9322 54.9358 53.8216 51.2219C53.7663 49.3577 54.3939 48.6773 56.2801 48.7316C60.055 48.8412 63.8356 48.7243 67.6126 48.7817C69.0886 48.8041 69.8676 48.4655 69.9584 46.7552C70.0439 45.1388 70.1561 43.5052 70.3533 41.8966C70.5375 40.3909 69.9119 40.1216 68.6248 40.1279C61.4601 40.1608 54.2943 40.1816 47.1301 40.1154C45.4193 40.0992 44.8521 40.7133 44.8782 42.3991C44.9549 47.4189 44.9059 52.4408 44.9059 57.4616ZM38.601 68.9073H38.5906V64.2131C38.59 56.9111 38.5582 49.6087 38.6135 42.3067C38.6255 40.7201 38.1111 40.0157 36.4775 40.1263C35.1809 40.214 33.8734 40.1394 32.5711 40.1425C29.6748 40.1493 29.6691 40.1503 29.6686 43.0852C29.666 56.3205 29.6691 69.5558 29.666 82.7911C29.6649 85.7312 29.5554 85.7949 26.6654 84.9987C23.0898 84.0131 19.4881 83.1157 15.936 82.0513C14.3369 81.5723 13.945 82.1473 13.9904 83.5957C14.0452 85.3545 14.1026 87.1201 14.0092 88.8748C13.9289 90.3952 14.5414 91.0479 16.0044 91.4309C22.8665 93.2288 29.714 95.0889 36.5343 97.0397C38.3506 97.5594 38.6344 96.928 38.625 95.3122C38.5744 86.5107 38.601 77.7087 38.601 68.9073Z" fill="white"/>
<path d="M48.6881 0.100516C50.4464 0.098951 52.2094 0.175127 53.9619 0.0765156C55.499 -0.0106172 56.0239 0.574268 55.9999 2.10353C55.9759 3.60566 55.7907 4.66325 53.928 4.60481C51.6511 4.53385 49.37 4.57455 47.091 4.59803C46.6277 4.60273 45.9113 4.31367 45.8393 5.10622C45.761 5.96242 46.4784 5.95198 47.0675 5.95563C49.4117 5.97024 51.7575 6.00937 54.1007 5.95355C55.3889 5.92328 56.0302 6.31512 55.979 7.72333C55.9039 9.80721 55.93 11.8963 55.9697 13.9818C55.9916 15.1161 55.5815 15.6493 54.3856 15.6378C50.4787 15.6008 46.5708 15.5961 42.6639 15.6305C41.1649 15.6435 41.2009 14.6627 41.238 13.6505C41.274 12.6565 40.9499 11.4293 42.6331 11.4424C45.0421 11.4612 47.452 11.4544 49.8615 11.4351C50.4845 11.4299 51.3271 11.576 51.3459 10.6222C51.3652 9.66112 50.5288 9.77643 49.8996 9.77226C47.62 9.75765 45.3395 9.72582 43.062 9.78895C41.7451 9.826 41.155 9.36268 41.203 7.98734C41.274 5.96868 41.2797 3.94427 41.2155 1.92561C41.1727 0.593573 41.6538 0.0295578 43.0229 0.0832984C44.9085 0.157387 46.7993 0.102081 48.6881 0.100516Z" fill="white"/>
<path d="M39.1655 7.97574C39.1634 9.99284 39.1337 12.0099 39.1749 14.026C39.1989 15.1874 38.7184 15.6669 37.5559 15.6497C34.8924 15.6111 32.2273 15.6121 29.5627 15.6434C27.9828 15.6622 28.0371 14.5853 28.0251 13.5131C28.0125 12.4028 28.0668 11.3755 29.6195 11.4407C30.6573 11.4845 31.7076 11.3484 32.7365 11.4506C34.3962 11.615 35.0953 11.0755 34.9972 9.29317C34.8611 6.82841 35.0301 4.34799 34.943 1.87906C34.8877 0.304927 35.6948 0.0675296 36.9924 0.0769211C38.3078 0.0863127 39.284 0.19275 39.1921 1.92654C39.0857 3.93737 39.1676 5.95865 39.1655 7.97574Z" fill="white"/>
</svg>
