<svg width="114" height="116" viewBox="0 0 114 116" fill="none" xmlns="http://www.w3.org/2000/svg">
<path d="M1.04554 58.0045C1.04554 40.3664 1.1309 22.7282 0.972177 5.09146C0.940166 1.67561 2.14592 0.293795 5.39504 0.339144C6.48209 0.353816 7.57047 0.241777 8.65751 0.240443C42.2998 0.22177 75.9422 0.20043 109.586 0.223104C111.018 0.224438 113.055 -0.503815 113.707 1.1781C114.266 2.62127 112.418 3.51091 111.464 4.47658C94.7234 21.4491 77.9842 38.4217 61.1544 55.3049C59.3138 57.1509 59.0136 58.1726 61.0357 60.1853C72.2196 71.3211 83.2514 82.6104 94.3126 93.8703C100.336 100.003 106.317 106.179 112.305 112.347C112.895 112.954 113.879 113.56 113.57 114.472C113.168 115.657 111.903 115.251 110.993 115.254C99.5611 115.282 88.1291 115.27 76.6971 115.27C53.0703 115.27 29.4447 115.275 5.81786 115.271C1.06954 115.271 1.02286 115.231 1.02019 110.592C1.01219 93.062 1.01753 75.5332 1.01753 58.0045H1.04554Z" fill="white"/>
</svg>
