<svg width="196" height="116" viewBox="0 0 196 116" fill="none" xmlns="http://www.w3.org/2000/svg">
<path d="M46.1093 56.7414C46.1093 48.0403 46.1086 39.3399 46.11 30.6388C46.11 29.3702 46.113 29.368 47.3536 29.368C58.8462 29.368 70.3389 29.3673 81.8315 29.368C83.0787 29.368 83.0861 29.3702 83.0802 30.6263C83.0706 32.6785 83.2623 32.405 81.3044 32.4065C71.1667 32.4146 61.0296 32.4102 50.8918 32.4109C49.7264 32.4109 49.7242 32.4124 49.7242 33.5623C49.7235 40.041 49.7235 46.5189 49.7242 52.9975C49.725 54.1099 49.7279 54.1136 50.8557 54.1136C60.532 54.1143 70.2091 54.1136 79.8855 54.1143C81.1062 54.1143 81.1143 54.1172 81.1084 55.3306C81.098 57.5243 81.3243 57.2574 79.2191 57.2596C69.786 57.267 60.3537 57.2626 50.9206 57.2626C49.7264 57.2633 49.7242 57.2648 49.7242 58.4766C49.7235 65.6593 49.7235 72.8426 49.725 80.0252C49.725 81.0875 49.7286 81.0904 50.8144 81.0904C61.25 81.0911 71.6856 81.0904 82.1219 81.0911C83.423 81.0911 83.434 81.0926 83.423 82.3568C83.4045 84.3839 83.6743 84.1237 81.6516 84.1252C70.2128 84.1325 58.7747 84.1289 47.3359 84.1281C46.1145 84.1281 46.11 84.1267 46.11 82.9251C46.1086 74.1975 46.1093 65.4691 46.1093 56.7414Z" fill="white"/>
<path d="M148.512 0.067627C147.693 1.26031 146.979 2.30704 146.258 3.34861C134.314 20.5946 122.374 37.8435 110.407 55.0747C109.924 55.7705 109.925 56.2084 110.426 56.8947C116.815 65.6533 123.171 74.4362 129.531 83.2169C129.696 83.4469 130.046 83.6732 129.887 83.9755C129.731 84.271 129.343 84.0764 129.062 84.1302C126.761 84.5674 125.388 83.5641 124.051 81.652C118.787 74.1229 113.31 66.7428 107.935 59.2911C107.493 58.6785 107.312 58.8753 106.971 59.3442C101.222 67.261 95.4485 75.1616 89.7181 83.0924C89.1645 83.8575 88.602 84.2548 87.6482 84.1428C87.0062 84.0676 86.3479 84.1376 85.6977 84.1236C85.467 84.1185 85.1574 84.2364 85.0269 83.9858C84.895 83.7322 85.1663 83.5428 85.3019 83.3563C87.3917 80.4859 89.4895 77.6214 91.5845 74.7547C95.997 68.7139 100.402 62.6679 104.834 56.6411C105.216 56.1214 105.158 55.7904 104.803 55.2995C98.8135 47.0208 92.8428 38.728 86.8683 30.439C86.8049 30.3505 86.7334 30.2672 86.6789 30.1743C86.5602 29.9716 86.2941 29.7903 86.415 29.5352C86.5403 29.2691 86.8469 29.379 87.0762 29.3723C90.1802 29.2876 90.1744 29.2935 91.9906 31.8189C96.9751 38.7509 101.973 45.6733 106.94 52.6171C107.398 53.2569 107.608 53.1545 108.016 52.5987C113.529 45.0792 118.964 37.5 124.612 30.0822C130.324 22.5782 136.251 15.2371 142.084 7.82521C143.995 5.39783 145.907 2.97046 147.822 0.545289C147.952 0.380908 148.044 0.164928 148.512 0.067627Z" fill="white"/>
<path d="M3.87527 33.9004C3.87527 34.4673 3.87601 34.7916 3.87527 35.116C3.85537 46.9352 3.87306 58.7551 3.79566 70.5743C3.76839 74.7752 3.72416 78.9761 3.73153 83.177C3.73301 83.9333 3.48091 84.1943 2.74672 84.1382C2.09952 84.0889 1.44569 84.1183 0.795535 84.1242C0.389375 84.1272 0.194771 83.9429 0.20288 83.5353C0.20804 83.2913 0.196983 83.0473 0.196983 82.8033C0.196983 65.4261 0.196246 48.0497 0.196983 30.6725C0.196983 29.37 0.21836 29.5115 1.4678 29.3368C3.73448 29.0199 5.00677 29.9398 6.27096 31.8468C16.6793 47.5492 27.2188 63.1646 37.7207 78.8043C45.6994 90.6862 53.6819 102.566 61.6613 114.447C61.8257 114.692 61.9746 114.947 61.9901 115.318C61.7623 115.025 61.5316 114.733 61.3075 114.437C55.4053 106.597 49.5605 98.7143 43.5868 90.9302C37.5571 83.0746 32.1134 74.812 26.4817 66.68C19.0742 55.9835 11.7191 45.2515 4.34114 34.5351C4.23647 34.3825 4.12221 34.2366 3.87527 33.9004Z" fill="white"/>
<path d="M154.174 58.2909C154.174 66.5048 154.175 74.7187 154.174 82.9325C154.174 84.1259 154.171 84.1274 152.953 84.1282C152.383 84.1289 151.814 84.1164 151.245 84.1245C150.834 84.1296 150.65 83.9387 150.66 83.5333C150.668 83.2347 150.656 82.937 150.656 82.6384V33.5999C150.655 32.4117 150.655 32.4102 149.455 32.4102C143.79 32.4102 138.124 32.4109 132.458 32.4094C131.398 32.4094 131.369 32.3881 131.371 31.3141C131.376 28.9788 131.202 29.3761 133.318 29.3739C146.303 29.3614 159.288 29.3673 172.272 29.368C173.49 29.368 173.495 29.3702 173.495 30.5784C173.492 32.7382 173.621 32.4006 171.675 32.405C166.173 32.4198 160.669 32.4249 155.167 32.394C154.381 32.3895 154.157 32.6254 154.159 33.4053C154.184 41.701 154.174 49.996 154.174 58.2909Z" fill="white"/>
<path d="M190.43 80.5463C188.744 80.4173 187.078 80.0436 186.221 78.2066C186.04 77.8189 185.711 77.339 186.202 76.9601C186.636 76.627 187.765 76.9439 188.043 77.4127C188.857 78.7846 191.365 79.1546 192.56 78.0791C193.356 77.3619 193.286 76.4161 192.385 75.8346C191.828 75.4748 191.181 75.3598 190.554 75.1873C189.798 74.9795 189.016 74.8335 188.293 74.5431C185.895 73.5811 185.483 70.5493 187.504 68.932C189.132 67.6288 192.147 67.676 193.725 69.0308C194.078 69.3338 194.411 69.667 194.583 70.1004C194.76 70.5478 195.187 71.0542 194.697 71.4928C194.277 71.8703 193.133 71.4921 192.83 70.9651C192.099 69.692 189.83 69.3662 188.767 70.3812C188.029 71.0852 188.177 72.126 189.096 72.6081C189.775 72.9649 190.534 73.0836 191.267 73.2708C191.95 73.4448 192.634 73.6047 193.276 73.9106C195.54 74.9935 195.841 78.0135 193.832 79.5416C192.859 80.2817 191.723 80.4807 190.43 80.5463Z" fill="white"/>
<path d="M181.63 73.0127C181.63 71.7397 181.654 70.4667 181.621 69.1944C181.6 68.4307 181.942 68.2243 182.655 68.2398C183.312 68.2538 183.75 68.3386 183.73 69.1494C183.663 71.9093 183.856 74.6735 183.615 77.4304C183.458 79.2231 182.138 80.4003 180.228 80.5234C178.365 80.6428 176.776 79.6396 176.394 78.0621C176.315 77.7385 176.027 77.311 176.543 77.0655C177.042 76.8289 178.115 77.0559 178.266 77.4473C178.541 78.1579 179.055 78.5339 179.788 78.6142C180.785 78.7233 181.543 78.1144 181.586 77.0736C181.641 75.7217 181.599 74.3669 181.599 73.0127H181.63Z" fill="white"/>
<path d="M174.315 79.0809C174.314 79.7679 173.711 80.3605 173.016 80.359C172.318 80.3568 171.742 79.7634 171.751 79.0573C171.76 78.3445 172.334 77.7732 173.041 77.7747C173.724 77.7761 174.316 78.3828 174.315 79.0809Z" fill="white"/>
</svg>
