<svg width="81" height="116" viewBox="0 0 81 116" fill="none" xmlns="http://www.w3.org/2000/svg">
<path d="M40.5407 23.6531C53.4891 23.6531 66.4374 23.6531 79.3856 23.6533C80.8762 23.6533 80.9908 23.724 80.8763 25.1931C80.672 27.8144 80.3963 30.4301 80.159 33.0491C79.8991 35.9157 79.6484 38.7831 79.395 41.6503C79.0955 45.0414 78.7964 48.4324 78.4988 51.8236C78.2422 54.746 77.9951 57.6693 77.7299 60.5907C77.4874 63.2645 77.2156 65.9356 76.9763 68.6096C76.7149 71.5316 76.4871 74.4568 76.224 77.3786C75.9338 80.6039 75.6124 83.8265 75.3192 87.0515C75.0586 89.9181 74.8207 92.7865 74.5683 95.6538C74.2844 98.8796 73.9982 102.105 73.707 105.33C73.6496 105.967 73.258 106.296 72.6586 106.461C68.9441 107.48 65.2316 108.507 61.5211 109.541C57.172 110.753 52.827 111.98 48.4774 113.191C45.9685 113.89 43.4539 114.567 40.9425 115.258C40.5534 115.365 40.1806 115.319 39.7976 115.211C35.2081 113.926 30.618 112.642 26.0253 111.368C20.2049 109.752 14.3823 108.146 8.56026 106.537C7.3917 106.214 7.26507 105.989 7.1689 104.816C6.88687 101.368 6.55541 97.924 6.25092 94.4777C6.00017 91.6379 5.76439 88.797 5.51447 85.957C5.2163 82.5658 4.91098 79.1751 4.60748 75.7844C4.35573 72.9726 4.10365 70.1607 3.8494 67.349C3.54507 63.9861 3.23276 60.624 2.93425 57.2606C2.67751 54.3659 2.44257 51.4694 2.18416 48.575C1.95055 45.9559 1.68982 43.3394 1.4567 40.7202C1.19148 37.7431 0.947216 34.7641 0.687314 31.7865C0.499625 29.6358 0.331737 27.4826 0.097126 25.337C-0.0609452 23.8913 0.0967932 23.6537 1.52975 23.6535C14.5333 23.6528 27.5371 23.6531 40.5407 23.6531ZM16.3262 69.0845C16.3262 72.8832 16.3578 76.6821 16.3127 80.4801C16.2908 82.3262 17.0999 83.5848 18.6718 84.4519C19.8602 85.1076 21.0299 85.7973 22.2033 86.48C24.1371 87.6051 26.1103 88.5334 28.4516 88.3968C31.4123 88.2241 33.1248 86.6703 33.5024 83.7913C33.6842 82.4051 33.6225 81.024 33.6257 79.6412C33.6405 73.2085 33.6337 66.7758 33.6287 60.3432C33.6283 59.966 33.7699 59.4441 33.3758 59.2713C32.625 58.9422 31.7779 59.0006 31.0147 59.2114C30.4416 59.3698 30.6513 60.0139 30.6506 60.4575C30.6401 67.7773 30.648 75.0974 30.6391 82.4172C30.6366 84.3728 28.8594 85.7998 26.9316 85.4334C26.1596 85.2866 25.4501 84.9861 24.7757 84.5906C23.295 83.7221 21.8397 82.8042 20.3204 82.0091C19.4628 81.5601 19.139 80.9768 19.1419 80.0325C19.1643 72.6849 19.1668 65.3372 19.1387 57.9895C19.1352 57.0866 19.5019 56.538 20.2361 56.1143C23.378 54.302 26.5128 52.4772 29.6498 50.6564C32.931 48.7516 36.217 46.8549 39.4876 44.9317C40.0061 44.6269 40.4537 44.5936 40.9572 44.9088C41.756 45.4088 42.5564 45.9074 43.3725 46.378C49.1326 49.6995 54.8939 53.0188 60.6642 56.3226C61.3432 56.7113 61.6068 57.2122 61.6043 58.0032C61.58 65.3509 61.582 72.6985 61.6015 80.0462C61.6034 80.8285 61.348 81.3294 60.6547 81.7239C57.7407 83.3819 54.8551 85.0899 51.9526 86.7682C48.3067 88.876 44.6504 90.966 41.0086 93.0812C40.4647 93.397 39.993 93.4207 39.4645 93.0706C38.7485 92.5962 38.0023 92.1682 37.2775 91.707C35.8112 90.7739 34.3566 89.8002 32.643 91.2296C32.5253 91.3278 32.3297 91.3313 32.1718 91.383C31.9891 91.4431 31.7724 91.4807 31.7718 91.7338C31.7713 91.925 31.9315 92.011 32.0748 92.096C32.718 92.4779 33.3585 92.8647 34.0065 93.2384C35.6121 94.1646 37.1864 95.1538 38.8414 95.9819C39.8742 96.4985 41.0337 96.8544 42.1868 96.2088C44.4105 94.9639 46.6338 93.718 48.8403 92.4429C53.2541 89.8925 57.6104 87.2374 62.0847 84.7984C64.1095 83.6947 64.9253 82.1788 64.9183 79.9834C64.8952 72.6914 64.876 65.3991 64.9291 58.1076C64.9461 55.7791 63.9316 54.2802 61.9366 53.1772C57.841 50.9128 53.803 48.544 49.7466 46.2093C47.4652 44.8963 45.173 43.6001 42.9256 42.2309C41.3778 41.2879 39.8469 41.5114 38.4204 42.2946C34.9743 44.187 31.5919 46.1951 28.181 48.1516C25.1293 49.902 22.079 51.6552 19.0176 53.3887C17.2394 54.3957 16.233 55.7534 16.2966 57.9392C16.4042 61.6515 16.3262 65.3692 16.3262 69.0845ZM46.6433 80.3959C48.7864 80.5097 50.944 80.2089 52.9842 79.307C56.3082 77.8378 57.1914 74.813 56.4786 71.8135C56.0673 70.083 54.6879 69.1293 53.0736 68.5596C50.9162 67.7981 48.6468 67.5787 46.401 67.2475C44.9219 67.0294 43.4196 66.8933 42.0143 66.3434C41.2577 66.0472 40.538 65.6369 40.4645 64.6831C40.3856 63.6603 40.8955 62.93 41.7143 62.4047C42.0597 62.1831 42.453 62.0127 42.8472 61.8942C44.3539 61.4415 45.8922 61.4874 47.4471 61.58C49.7714 61.7184 51.6143 62.4653 52.3095 64.935C52.4378 65.3908 52.7208 65.7299 53.2476 65.738C53.8293 65.747 54.4147 65.7758 54.9926 65.7272C55.6139 65.675 55.9169 65.3384 55.8275 64.6583C55.4254 61.5941 53.6756 59.6202 50.6977 58.8298C48.1617 58.1566 45.599 58.1228 43.0311 58.4906C40.7702 58.8142 38.7592 59.923 37.8031 61.9297C35.9009 65.9227 37.6911 68.7565 41.6968 70.0642C43.1707 70.5454 44.7452 70.5978 46.2882 70.7647C47.9953 70.9494 49.707 71.1549 51.3348 71.7499C52.9746 72.3491 53.4788 73.9975 52.5162 75.4624C51.9862 76.2689 51.1806 76.6255 50.3158 76.8408C48.0208 77.4122 45.6995 77.4142 43.3948 76.9237C41.4442 76.5083 39.8449 75.6283 39.4345 73.4318C39.3756 73.1166 39.1615 72.9454 38.8503 72.9401C38.1856 72.9286 37.5202 72.924 36.856 72.9469C36.535 72.9581 36.343 73.1567 36.3788 73.4983C36.5307 74.9494 36.8117 76.3421 37.8999 77.4443C39.4314 78.9956 41.2529 79.9355 43.4171 80.2347C44.4649 80.3796 45.5123 80.4324 46.6433 80.3959Z" fill="white"/>
<path d="M40.615 9.18241C40.6145 10.2906 40.6213 11.3987 40.6124 12.5067C40.6053 13.3997 40.2745 14.1054 39.458 14.5665C37.4089 15.7239 35.3733 16.9051 33.3307 18.074C32.7001 18.4349 32.0616 18.4331 31.4334 18.07C29.3242 16.8512 27.2207 15.6222 25.1078 14.4096C24.4211 14.0154 24.1874 13.3781 24.18 12.6626C24.1564 10.3914 24.1674 8.1195 24.1744 5.8481C24.1774 4.93362 24.6171 4.27538 25.4045 3.82679C27.4491 2.66155 29.4962 1.50081 31.5285 0.314613C32.0982 -0.0180018 32.6289 -0.00768557 33.1761 0.303465C35.2941 1.50747 37.4171 2.70299 39.5216 3.92995C40.2687 4.36556 40.6344 5.05276 40.6196 5.94128C40.6016 7.02132 40.6154 8.10203 40.615 9.18241Z" fill="white"/>
<path d="M21.3248 9.22614C21.3249 11.4431 21.3294 13.6601 21.3229 15.8771C21.3201 16.8779 21.1106 17.1174 20.1232 17.151C19.1267 17.1848 18.1282 17.1558 17.1307 17.1638C16.5254 17.1686 16.0871 16.8961 15.7162 16.4307C14.3876 14.7638 13.0438 13.1089 11.7004 11.4539C11.5668 11.2892 11.4748 10.9837 11.2303 11.0405C10.9082 11.1152 11.0209 11.4498 11.0192 11.6784C11.0092 13.1194 10.9942 14.5608 11.023 16.0012C11.0395 16.8239 10.654 17.166 9.87192 17.163C8.73564 17.1587 7.59952 17.1573 6.46324 17.1623C5.66323 17.1656 5.33544 16.7859 5.33877 15.9791C5.35691 11.4343 5.34276 6.88952 5.35142 2.34455C5.35308 1.41626 5.56456 1.21276 6.47705 1.19629C7.33579 1.18065 8.20369 1.26801 9.05211 1.17283C10.1951 1.04487 10.9352 1.55669 11.5834 2.40346C12.6769 3.83142 13.8059 5.23226 14.9224 6.64276C15.0572 6.81298 15.1848 7.07687 15.4262 7.01514C15.7492 6.93278 15.64 6.60532 15.6417 6.3762C15.6522 4.99067 15.665 3.60463 15.6395 2.21959C15.6257 1.47416 15.9354 1.16567 16.681 1.18498C17.8164 1.21443 18.9534 1.18414 20.0895 1.19446C21.1163 1.20394 21.3171 1.39613 21.3214 2.40895C21.3312 4.68134 21.3246 6.95374 21.3248 9.22614Z" fill="white"/>
<path d="M43.4458 9.1966C43.4458 6.95066 43.4402 4.70488 43.4482 2.45894C43.4521 1.38705 43.6426 1.19686 44.7145 1.1942C46.8217 1.18888 48.9366 1.08422 51.0342 1.22864C53.7452 1.4155 56.2189 2.29088 57.8254 4.68025C60.4291 8.55316 59.136 14.8457 53.6855 16.5313C52.1335 17.0111 50.5428 17.1657 48.9292 17.1655C47.543 17.1655 46.1565 17.1744 44.7702 17.1619C43.6597 17.1521 43.4506 16.9416 43.4476 15.8509C43.4417 13.6327 43.4458 11.4146 43.4458 9.1966ZM49.2195 9.10908C49.2195 9.82755 49.2362 10.5467 49.2127 11.2643C49.1997 11.6627 49.3438 11.8858 49.7328 11.981C51.3899 12.3861 53.1556 11.0607 53.2731 9.37713C53.4292 7.13851 51.6226 6.21987 49.6618 6.30023C49.2628 6.31654 49.2049 6.60723 49.2135 6.95348C49.2313 7.67163 49.2188 8.39044 49.2195 9.10908Z" fill="white"/>
<path d="M61.0857 9.12804C61.0855 6.91022 61.0802 4.69256 61.0879 2.47474C61.0915 1.39403 61.2817 1.19619 62.3399 1.19436C66.0546 1.18771 69.7694 1.18787 73.4841 1.19453C74.5514 1.19636 74.7288 1.38538 74.7394 2.46842C74.7472 3.27225 74.7515 4.07642 74.7372 4.88009C74.7207 5.80122 74.5204 6.01104 73.6001 6.01753C71.6875 6.03101 69.7745 6.01004 67.8618 6.03217C67.4666 6.03683 66.8155 5.81587 66.812 6.48442C66.8084 7.19358 67.4819 6.99591 67.9101 7.0014C69.5731 7.02286 71.2367 7.00506 72.8999 7.01105C74.0706 7.01504 74.2256 7.17861 74.234 8.37379C74.2377 8.8728 74.2384 9.3718 74.234 9.87081C74.2239 11.0364 74.0633 11.1963 72.8653 11.1999C71.2575 11.2049 69.6495 11.2006 68.0417 11.2008C67.8477 11.2009 67.6534 11.2009 67.4596 11.2081C67.0957 11.2216 66.7814 11.3217 66.7758 11.7595C66.7701 12.1938 67.0717 12.3212 67.4412 12.3286C68.023 12.3402 68.6052 12.3384 69.1874 12.339C70.7121 12.3404 72.2368 12.3296 73.7615 12.344C74.6758 12.3527 74.8782 12.5638 74.8936 13.487C74.9076 14.3184 74.8858 15.1504 74.8978 15.9818C74.9093 16.7679 74.5599 17.1664 73.7525 17.165C69.9546 17.1587 66.1566 17.1729 62.3589 17.1541C61.3112 17.1487 61.0908 16.8933 61.0879 15.8644C61.0814 13.6189 61.0858 11.3735 61.0857 9.12804Z" fill="white"/>
</svg>
