<svg width="115" height="116" viewBox="0 0 115 116" fill="none" xmlns="http://www.w3.org/2000/svg">
<path d="M81.3352 12.1885C81.3575 15.5696 80.8945 18.587 80.2084 21.5765C80.0959 22.0659 80.091 22.0602 80.5763 22.2075C84.0138 23.2503 87.3348 24.5641 90.3718 26.5129C92.3337 27.7712 94.1132 29.2344 95.4057 31.215C97.1486 33.8858 97.0744 36.903 95.2281 39.5082C93.6458 41.7407 91.5386 43.3596 89.2124 44.7258C86.5593 46.2833 83.7272 47.4289 80.7948 48.3378C80.2706 48.5 80.272 48.5028 80.395 49.0348C81.0488 51.8582 81.4711 54.7091 81.4866 57.616C81.5012 60.3368 81.2306 63.0067 80.1627 65.5394C79.4649 67.1945 78.4664 68.6207 76.864 69.5367C75.4524 70.344 73.9213 70.5682 72.3266 70.4157C69.3363 70.1301 66.6992 68.8919 64.1847 67.3434C61.7938 65.8712 59.6334 64.1012 57.6033 62.1698C57.34 61.9193 57.1911 61.9252 56.9319 62.1728C54.4019 64.5914 51.6404 66.6983 48.5224 68.3112C46.5513 69.331 44.4944 70.1076 42.2731 70.3589C40.3539 70.5758 38.5171 70.3358 36.8778 69.2204C35.5896 68.3441 34.7491 67.1067 34.1408 65.7011C33.3509 63.8762 33.0213 61.9502 32.8982 59.9765C32.6694 56.3077 33.212 52.7231 34.0399 49.1676C34.154 48.678 34.1554 48.687 33.656 48.5354C30.1687 47.4767 26.8282 46.0893 23.7884 44.0503C21.8937 42.7795 20.1819 41.3078 18.9273 39.368C18.1483 38.1629 17.6282 36.8614 17.5823 35.4139C17.5253 33.6132 18.1912 32.0457 19.2366 30.6202C20.7196 28.5975 22.6833 27.1332 24.8183 25.879C27.6091 24.2394 30.6037 23.0805 33.7011 22.171C34.3152 21.9906 34.2024 22.0341 34.0829 21.5192C33.4269 18.6985 32.9558 15.8541 32.8868 12.9494C32.8204 10.1555 33.0449 7.40788 34.1524 4.80506C35.1026 2.57097 36.6338 0.946074 39.082 0.362417C40.7677 -0.0394593 42.4334 0.153735 44.0825 0.585772C46.4386 1.20312 48.5803 2.29436 50.6239 3.59237C52.8485 5.00559 54.8959 6.64733 56.8099 8.45509C57.08 8.70997 57.2466 8.71839 57.5139 8.4627C59.3989 6.65929 61.4069 5.00695 63.601 3.58992C65.8925 2.10986 68.2956 0.875698 70.9927 0.311605C72.3377 0.0301014 73.6884 -0.0408179 75.041 0.275737C77.2048 0.782498 78.6555 2.16148 79.6636 4.0706C80.5309 5.71343 80.9467 7.49048 81.1773 9.31862C81.3102 10.3724 81.3588 11.4304 81.3352 12.1885ZM56.9569 47.9362C59.1337 47.9723 61.2754 47.8623 63.4187 47.7878C64.0785 47.7648 64.5752 47.5925 64.8491 46.9548C64.9243 46.7798 65.0471 46.6246 65.1518 46.4629C67.4041 42.9784 69.4651 39.386 71.2951 35.6609C71.4497 35.346 71.45 35.0976 71.2924 34.7846C69.2906 30.808 67.0652 26.9623 64.6023 23.2528C64.3953 22.9408 64.1556 22.8161 63.8089 22.8009C62.2207 22.7316 60.6336 22.6335 59.0448 22.59C57.0327 22.5349 55.0201 22.59 53.0088 22.6596C52.1426 22.6895 51.2774 22.7531 50.412 22.8047C50.1421 22.821 49.9185 22.8859 49.7435 23.1463C47.1904 26.9419 44.9074 30.8919 42.9095 35.0074C42.8165 35.1982 42.8073 35.3509 42.9032 35.5465C44.9063 39.6324 47.179 43.5612 49.7134 47.3403C49.9329 47.6677 50.2052 47.7634 50.5579 47.7789C52.7001 47.8737 54.8424 47.9729 56.9569 47.9362ZM21.0536 35.1927C21.0565 35.8916 21.2247 36.4717 21.6551 37.2108C22.3766 38.4501 23.3852 39.4308 24.5055 40.2987C27.5814 42.6814 31.1032 44.1479 34.7904 45.2712C35.0366 45.3462 35.1151 45.2399 35.1779 45.0405C36.2004 41.7975 37.4329 38.6352 38.8448 35.5425C38.9323 35.3509 38.9331 35.19 38.8442 34.9963C37.4598 31.971 36.2466 28.8785 35.2543 25.7018C35.1643 25.4135 35.0556 25.363 34.7687 25.4477C32.0577 26.248 29.4239 27.2365 26.9562 28.6299C25.2163 29.6124 23.5803 30.7362 22.3008 32.3003C21.6136 33.1404 21.0601 34.0526 21.0536 35.1927ZM41.1199 66.9594C42.6168 66.9545 44.023 66.5426 45.384 65.9665C48.8968 64.4791 51.8714 62.2027 54.6315 59.6156C54.7965 59.4607 54.8206 59.3491 54.6549 59.1708C52.3621 56.7049 50.2679 54.0771 48.3118 51.3382C48.1822 51.1569 48.0281 51.0545 47.8081 51.0368C47.3282 50.9985 46.8478 50.9624 46.3693 50.9116C43.5306 50.6108 40.7053 50.2195 37.9147 49.61C37.5758 49.5361 37.4745 49.6328 37.4017 49.9434C36.7672 52.647 36.324 55.374 36.3145 58.1611C36.308 60.1359 36.4713 62.0812 37.1465 63.9588C37.8916 66.0307 39.1086 66.9583 41.1199 66.9594ZM78.0422 57.5122C78.0531 56.8992 77.9811 55.9756 77.8987 55.0521C77.7382 53.2503 77.4211 51.4754 77.0113 49.7152C76.9523 49.4622 76.8458 49.3932 76.5801 49.4532C75.1361 49.7801 73.6822 50.0578 72.219 50.2863C70.4949 50.5556 68.7676 50.804 67.0269 50.9306C66.4786 50.9705 66.1321 51.183 65.8129 51.646C64.0065 54.2657 62.052 56.7729 59.9043 59.1243C59.7024 59.3452 59.7374 59.4667 59.9377 59.646C60.7279 60.352 61.5028 61.0753 62.3234 61.7465C64.4108 63.4542 66.6152 64.9786 69.1148 66.0293C70.6237 66.6635 72.1709 67.1379 73.8444 66.9529C74.6957 66.8586 75.4076 66.5103 75.9706 65.8549C76.6605 65.0519 77.0811 64.1126 77.3773 63.1113C77.8873 61.387 78.0395 59.6167 78.0422 57.5122ZM36.3305 12.9526C36.3346 15.0498 36.7702 17.8507 37.4237 20.6236C37.5541 21.1768 37.5536 21.1711 38.1038 21.0505C41.2107 20.3695 44.352 19.9065 47.5154 19.5927C47.851 19.5595 48.0947 19.4873 48.3007 19.1962C50.2174 16.4907 52.2917 13.911 54.5405 11.4736C54.7152 11.2845 54.7005 11.1723 54.5117 11.0112C54.0718 10.6365 53.655 10.2349 53.2175 9.85745C50.9095 7.86818 48.4651 6.07971 45.6718 4.82001C44.0463 4.0869 42.3742 3.52335 40.5517 3.62932C39.6656 3.68068 38.8861 3.97522 38.2744 4.65154C37.7555 5.22514 37.4098 5.89711 37.1482 6.6131C36.49 8.41515 36.3297 10.2927 36.3305 12.9526ZM77.8958 12.4662C77.9118 11.3557 77.8322 10.2512 77.6648 9.15478C77.473 7.89861 77.1567 6.67831 76.5448 5.55066C75.8128 4.20184 74.7207 3.5008 73.1474 3.53694C71.5293 3.57416 70.0449 4.07522 68.608 4.74284C65.2901 6.28404 62.4696 8.52927 59.8238 11.0169C59.6195 11.209 59.6546 11.3321 59.8274 11.5193C60.358 12.0948 60.8795 12.6793 61.3884 13.2741C63.034 15.1979 64.5833 17.1972 66.0354 19.271C66.1794 19.4769 66.3443 19.5652 66.5998 19.5853C67.3312 19.6427 68.0611 19.7245 68.7893 19.8166C71.3462 20.1391 73.8865 20.56 76.4008 21.1287C76.6562 21.1863 76.7681 21.1331 76.8306 20.8662C77.4773 18.1026 77.8765 15.3087 77.8958 12.4662ZM93.2295 35.2561C93.2127 34.3216 92.8404 33.5586 92.3416 32.85C91.4761 31.6202 90.3444 30.6642 89.1143 29.8268C86.1452 27.8052 82.8517 26.4966 79.4315 25.4716C79.2038 25.4034 79.1389 25.4942 79.078 25.686C78.0827 28.8244 76.8776 31.8813 75.494 34.8683C75.3861 35.1012 75.3747 35.3142 75.4905 35.5571C76.9344 38.5827 78.1928 41.6834 79.222 44.8747C79.3014 45.1209 79.3997 45.1611 79.6351 45.0883C82.4063 44.2324 85.0858 43.1615 87.587 41.679C89.2225 40.7098 90.7484 39.599 91.9598 38.1094C92.6478 37.2638 93.17 36.3408 93.2295 35.2561ZM73.3691 39.214C71.9304 41.9972 70.3919 44.6253 68.7676 47.2373C68.8648 47.2536 68.9004 47.2683 68.9333 47.2642C71.153 46.9792 73.3629 46.6352 75.5473 46.1426C75.9722 46.0467 75.9758 46.0393 75.8372 45.6143C75.2959 43.9541 74.6775 42.3224 74.0126 40.7081C73.8175 40.2343 73.6077 39.7664 73.3691 39.214ZM45.4533 47.3251C43.9319 44.6565 42.3717 42.0898 40.9525 39.3294C40.7645 39.7938 40.6129 40.1682 40.461 40.5429C39.7605 42.2727 39.1257 44.0264 38.5595 45.8046C38.4975 45.9996 38.394 46.1923 38.7301 46.2621C40.9324 46.7194 43.151 47.0702 45.4533 47.3251ZM52.63 51.3319C52.7235 51.4816 52.7558 51.5444 52.798 51.5996C54.124 53.3296 55.5225 54.9988 56.9767 56.6226C57.221 56.8951 57.3547 56.8297 57.5585 56.5957C58.6495 55.3431 59.7165 54.0709 60.7295 52.7538C61.083 52.2938 61.4262 51.8259 61.8107 51.3126C58.7272 51.4645 55.7219 51.4526 52.63 51.3319ZM56.952 19.1362C58.5253 19.1411 59.9352 19.127 61.3436 19.2115C61.433 19.2169 61.5561 19.262 61.6077 19.1585C61.6588 19.056 61.5493 18.9857 61.4944 18.9128C60.217 17.2181 58.8584 15.5908 57.4468 14.0061C57.2335 13.7667 57.1156 13.7659 56.8925 14.011C55.5043 15.5359 54.1848 17.1173 52.93 18.7528C52.8335 18.8783 52.6121 19.0047 52.7009 19.1596C52.78 19.2973 53.0156 19.2188 53.177 19.2066C54.4889 19.1085 55.8029 19.1558 56.952 19.1362ZM73.2952 31.1392C73.4102 31.0974 73.4219 31.0172 73.4482 30.9542C74.2876 28.9532 75.0514 26.9245 75.725 24.8614C75.8198 24.5712 75.6994 24.5046 75.4587 24.4524C73.7634 24.0856 72.06 23.7644 70.3427 23.5193C69.8392 23.4476 69.3355 23.3799 68.7466 23.2987C70.3998 25.9061 71.8959 28.4978 73.2952 31.1392ZM45.4647 23.3525C45.3813 23.331 45.3463 23.3112 45.3147 23.3153C43.1304 23.6027 40.959 23.9647 38.804 24.4261C38.5383 24.4829 38.5171 24.5989 38.5899 24.8296C39.235 26.8756 39.9868 28.8823 40.8036 30.865C40.8129 30.8873 40.8205 30.9101 40.8289 30.9327C40.8941 31.1047 40.9718 31.1623 41.0786 30.9607C41.1126 30.8968 41.1482 30.8338 41.1816 30.7697C42.21 28.7918 43.3094 26.8544 44.4781 24.9562C44.8036 24.4277 45.1283 23.8992 45.4647 23.3525Z" fill="white"/>
<path d="M0.13562 98.6517V83.1383C0.13562 82.584 0.136435 82.5827 0.695638 82.5827C4.86629 82.5821 9.03694 82.5571 13.2073 82.5921C15.6417 82.6125 17.8994 83.2506 19.8216 84.8284C21.5573 86.2533 22.5562 88.11 22.9368 90.299C23.2928 92.3448 23.1667 94.3639 22.3556 96.2964C21.1557 99.1538 18.9453 100.793 15.9743 101.483C15.705 101.545 15.4305 101.603 15.1561 101.62C14.7605 101.644 14.9382 101.815 15.0439 101.976C16.0204 103.454 16.9976 104.932 17.9749 106.409C19.7235 109.053 21.4728 111.697 23.2194 114.341C23.283 114.438 23.4151 114.534 23.3569 114.655C23.2958 114.782 23.1401 114.721 23.0271 114.721C21.7011 114.722 20.3751 114.713 19.0493 114.719C18.7909 114.721 18.6287 114.633 18.489 114.415C15.9167 110.395 13.3358 106.381 10.7667 102.359C10.5991 102.096 10.4282 101.975 10.1059 101.978C8.29786 101.993 6.48982 101.985 4.68179 101.986C4.21307 101.986 4.20465 101.995 4.20465 102.479C4.20383 106.348 4.20437 110.218 4.20383 114.087C4.20383 114.714 4.20302 114.714 3.59327 114.714C2.61698 114.715 1.64068 114.715 0.66439 114.714C0.136707 114.714 0.13562 114.712 0.13562 114.165V98.6517ZM4.2041 92.3143C4.2041 94.1582 4.20383 96.0019 4.2041 97.8458C4.20437 98.4126 4.20492 98.4129 4.78722 98.4131C7.26966 98.4131 9.75211 98.4123 12.2346 98.4139C12.7166 98.4142 13.197 98.4134 13.676 98.3419C15.1431 98.1229 16.4234 97.5379 17.4198 96.4162C18.6806 94.9968 19.0469 93.2985 18.8502 91.465C18.6898 89.9729 18.0573 88.6988 16.8935 87.7144C15.5805 86.6036 14.0203 86.242 12.3538 86.2335C9.79912 86.2205 7.24439 86.2297 4.68967 86.2302C4.20709 86.2302 4.20492 86.2316 4.20465 86.7106C4.20356 88.5784 4.2041 90.4465 4.2041 92.3143Z" fill="white"/>
<path d="M39.6251 104.306C36.6726 104.306 33.7201 104.306 30.7676 104.307C30.2831 104.307 30.2722 104.309 30.3304 104.796C30.6181 107.22 31.6531 109.237 33.6293 110.711C34.92 111.673 36.3998 112.149 38.004 112.226C40.6123 112.35 42.9532 111.623 45.0003 109.989C45.1789 109.846 45.353 109.695 45.5093 109.529C45.6948 109.332 45.8147 109.373 45.9609 109.578C46.3869 110.177 46.8141 110.776 47.2687 111.353C47.4866 111.63 47.4722 111.801 47.2083 112.041C45.4772 113.614 43.4608 114.603 41.168 115.035C38.6673 115.507 36.1911 115.418 33.8013 114.513C29.8679 113.023 27.5675 110.097 26.7015 106.043C26.0146 102.827 26.3573 99.6977 27.9653 96.793C29.8404 93.406 32.7106 91.3942 36.5851 90.9616C39.6284 90.6217 42.4399 91.2746 44.8427 93.2653C46.8698 94.9448 48.0306 97.156 48.6354 99.6841C48.9626 101.05 49.0669 102.44 49.071 103.842C49.0721 104.209 48.952 104.315 48.5911 104.313C45.6025 104.301 42.6138 104.306 39.6251 104.306ZM37.8166 101.589C40.2025 101.589 42.5883 101.59 44.9742 101.589C45.4166 101.589 45.4492 101.552 45.4046 101.113C45.3886 100.957 45.3672 100.802 45.3443 100.647C45.0041 98.3179 43.9781 96.3941 41.9785 95.0752C40.5552 94.1364 38.9583 93.8628 37.2807 93.9554C35.4689 94.0557 33.9125 94.7369 32.6525 96.0425C31.2909 97.4533 30.551 99.163 30.3266 101.103C30.2703 101.588 30.273 101.589 30.7673 101.589C33.1172 101.59 35.4667 101.589 37.8166 101.589Z" fill="white"/>
<path d="M69.2901 112.196C68.955 112.501 68.6993 112.752 68.4252 112.981C66.7992 114.335 64.9145 115.045 62.8185 115.248C60.6477 115.457 58.6084 115.086 56.7836 113.855C54.4875 112.306 53.4506 110.104 53.5052 107.354C53.5468 105.25 54.2598 103.444 55.8298 102.014C57.0425 100.91 58.4921 100.268 60.0972 100.034C62.3894 99.6991 64.6151 99.9703 66.7133 101.006C67.5179 101.403 68.242 101.923 68.8694 102.569C68.9776 102.68 69.0643 102.813 69.1751 102.954C69.3314 102.779 69.2873 102.642 69.2876 102.521C69.2917 101.352 69.292 100.183 69.2895 99.0138C69.2849 96.7053 68.0086 94.97 65.7672 94.4027C62.5163 93.5794 59.6135 94.2926 57.1188 96.5645C56.9229 96.7428 56.7354 96.9308 56.552 97.1221C56.4197 97.2601 56.317 97.2609 56.2078 97.0966C55.7339 96.3841 55.2611 95.6708 54.7769 94.9655C54.6348 94.7584 54.7377 94.6394 54.875 94.5033C55.9461 93.4411 57.1381 92.5417 58.5323 91.9556C61.6639 90.6385 64.8711 90.4807 68.1002 91.5306C71.0302 92.4835 72.7961 94.895 72.9425 97.9737C73.0499 100.226 72.9781 102.48 72.9887 104.733C73.0037 107.879 72.9928 111.025 72.9923 114.171C72.9923 114.723 72.9906 114.724 72.4281 114.724C71.5361 114.723 70.6438 114.706 69.7525 114.729C69.3781 114.738 69.2718 114.601 69.2838 114.246C69.3061 113.597 69.2901 112.947 69.2901 112.196ZM69.2901 107.605C69.2901 107.026 69.2716 106.447 69.2969 105.87C69.3123 105.514 69.1797 105.256 68.9539 104.997C66.988 102.74 63.0752 102.018 60.4888 103.008C58.5033 103.769 57.3091 105.47 57.2914 107.555C57.2732 109.692 58.4092 111.363 60.423 112.172C61.7544 112.708 63.1353 112.713 64.5162 112.501C66.3212 112.224 67.8964 111.479 69.0922 110.043C69.2319 109.876 69.2963 109.703 69.293 109.485C69.2841 108.858 69.2898 108.232 69.2901 107.605Z" fill="white"/>
<path d="M82.6039 102.78C82.5998 105.126 83.0294 107.053 84.2059 108.763C85.4985 110.641 87.2949 111.686 89.5567 111.945C91.4063 112.157 93.1314 111.847 94.6759 110.751C95.2808 110.321 95.8012 109.805 96.2519 109.22C96.3961 109.033 96.4953 109.006 96.6777 109.176C97.3456 109.803 98.0213 110.421 98.7061 111.029C98.9188 111.218 98.8238 111.354 98.6927 111.515C97.188 113.37 95.2965 114.61 92.935 115.056C90.0366 115.605 87.2337 115.308 84.629 113.866C81.6968 112.244 79.9225 109.703 79.1571 106.48C78.3118 102.921 78.6379 99.4681 80.5374 96.2868C82.4376 93.105 85.3122 91.366 88.9844 90.9592C91.1294 90.7214 93.2214 90.9464 95.2011 91.8621C96.6176 92.5175 97.7662 93.5144 98.7376 94.7263C98.8688 94.8899 98.8656 95.0038 98.7017 95.1507C98.02 95.7621 97.3434 96.3798 96.6785 97.0096C96.4886 97.1895 96.3957 97.1363 96.2578 96.9574C95.4713 95.9363 94.5208 95.1124 93.2977 94.6611C89.9219 93.4153 85.2971 94.4109 83.4163 98.8158C82.8346 100.178 82.5792 101.602 82.6039 102.78Z" fill="white"/>
<path d="M104.581 102.717V95.233C104.581 94.6902 104.58 94.6899 104.022 94.6899C103.082 94.6896 102.142 94.6782 101.202 94.6958C100.866 94.7021 100.728 94.6092 100.738 94.2508C100.76 93.468 100.76 92.6838 100.738 91.9013C100.728 91.5409 100.868 91.4521 101.203 91.4581C102.167 91.4752 103.131 91.4646 104.095 91.4637C104.579 91.4635 104.58 91.4626 104.581 90.9924C104.581 89.1965 104.58 87.401 104.582 85.6052C104.582 85.1098 104.586 85.1063 105.091 85.1055C106.007 85.1044 106.923 85.1185 107.838 85.0987C108.192 85.091 108.295 85.2212 108.293 85.5604C108.281 87.3681 108.287 89.1759 108.288 90.9836C108.288 91.4621 108.29 91.4635 108.771 91.4637C110.024 91.4646 111.278 91.4768 112.531 91.4564C112.905 91.4502 113.01 91.5833 113 91.9377C112.98 92.6965 112.98 93.4566 113 94.2152C113.009 94.5682 112.907 94.7035 112.532 94.6975C111.254 94.6771 109.977 94.6983 108.699 94.6839C108.384 94.6804 108.282 94.7803 108.282 95.097C108.29 99.8214 108.289 104.545 108.288 109.27C108.288 109.621 108.334 109.965 108.427 110.305C108.766 111.531 109.74 112.171 110.999 111.99C111.667 111.895 112.291 111.691 112.81 111.242C112.988 111.089 113.084 111.105 113.171 111.333C113.45 112.065 113.738 112.793 114.033 113.518C114.114 113.719 114.071 113.853 113.91 113.991C113.223 114.573 112.432 114.937 111.557 115.124C110.534 115.342 109.5 115.389 108.47 115.201C106.386 114.822 105.104 113.515 104.727 111.42C104.629 110.873 104.577 110.324 104.578 109.767C104.584 107.417 104.581 105.067 104.581 102.717Z" fill="white"/>
<path d="M50.0446 35.2061C50.0437 31.2792 53.196 28.1117 57.109 28.1079C61.0435 28.1038 64.2396 31.2756 64.2455 35.1901C64.2515 39.0836 61.0292 42.3037 57.1245 42.3062C53.2318 42.3086 50.0453 39.1132 50.0446 35.2061Z" fill="white"/>
</svg>
