<svg width="120" height="120" viewBox="0 0 120 120" fill="none" xmlns="http://www.w3.org/2000/svg">
<path d="M54.8819 0.067627H65.735C65.7829 0.317762 65.9637 0.353403 66.1808 0.375436C76.5821 1.41939 86.0925 4.77354 94.5796 11.0282C99.382 14.567 103.657 18.5828 107.368 23.2511C113.579 31.065 117.488 39.88 119.167 49.7221C119.419 51.2041 119.327 52.7606 120 54.1649V65.3575C119.294 66.8161 119.391 68.4349 119.14 69.9752C115.282 93.6934 96.1225 113.589 72.6078 118.211C70.3236 118.66 68.0263 119.042 65.735 119.455H54.8819C54.7854 119.13 54.508 119.17 54.2598 119.142C42.0551 117.786 31.2649 113.153 21.8589 105.216C15.6165 99.948 10.6774 93.6564 7.11325 86.3364C1.43077 74.6643 -0.308508 62.3954 1.79755 49.538C5.8049 25.0662 25.7665 5.02303 50.2959 0.93014C51.8259 0.67482 53.4349 0.781096 54.8819 0.067627ZM57.1707 55.9067C49.0899 50.6001 41.5639 44.5573 34.1505 38.3506C35.0117 40.421 36.5968 41.9238 37.9077 43.6216C45.0975 52.9382 52.8284 61.7467 62.0581 69.1186C62.861 69.7594 62.7437 70.005 61.9162 70.4541C58.5892 72.2582 55.0355 73.2341 51.2777 73.4214C43.2526 73.8212 36.0622 71.2952 29.3779 67.0391C28.9359 66.7578 28.5653 66.2679 27.7176 66.3982C30.7627 70.3835 33.5764 74.2878 37.6939 77.13C41.7181 79.9081 45.855 82.3608 50.5253 83.8247C58.6793 86.3811 66.6668 86.3753 74.3756 82.1878C75.8317 81.3972 77.4317 80.9306 79.0634 80.6572C83.3844 79.9333 86.4398 81.3888 88.7143 85.1855C88.8835 85.4674 88.9366 85.9165 89.4602 85.8251C89.9048 85.2089 89.9268 84.4857 89.9521 83.7664C90.1322 78.6412 88.4253 74.1167 85.4866 70.0225C84.9163 69.2287 84.7796 68.5626 85.0323 67.6288C86.0063 64.0264 86.075 60.3632 85.4393 56.6999C83.827 47.4041 79.1178 39.8631 72.2488 33.5806C70.516 31.9955 68.7042 30.4986 66.6286 29.3464C66.4206 29.7145 66.4419 29.9627 66.5955 30.1914C67.7218 31.875 68.7366 33.6201 69.6276 35.4417C73.0401 42.4189 74.2091 49.6599 72.1873 57.2715C71.5963 59.4948 71.5626 59.4955 69.6224 58.1955C60.1089 51.8203 51.3839 44.4828 43.2118 36.4668C42.9953 36.2549 42.8301 35.5272 42.3052 36.0871C41.9598 36.4552 42.37 36.7079 42.5838 36.9898C47.3902 43.3255 52.1829 49.6722 57.4306 55.6553C57.3438 55.7389 57.2576 55.8232 57.1707 55.9067Z" fill="white"/>
<path d="M57.4306 55.6553C57.6976 55.7842 57.8337 55.9624 57.5978 56.2223C57.5855 56.2359 57.3192 56.0175 57.1708 55.9067C57.2576 55.8231 57.3438 55.7395 57.4306 55.6553Z" fill="white"/>
</svg>
