<svg width="43" height="44" viewBox="0 0 43 44" fill="none" xmlns="http://www.w3.org/2000/svg">
<path d="M41.8253 19.1097C40.9342 14.8494 37.9302 12.0831 33.6724 11.4082C32.7792 11.2667 31.4152 11.4347 31.0644 10.9952C30.5606 10.3637 30.7523 9.23032 30.6226 8.32487C30.0512 4.36008 27.143 1.15432 23.3441 0.292189C18.9952 -0.692351 14.8576 0.854203 12.5882 4.29542C11.4283 6.05323 10.9288 8.01743 10.8639 10.0802C10.8328 11.0577 10.6093 11.5548 9.51681 11.5428C8.73153 11.5331 7.92471 11.7157 7.15855 11.9269C2.46134 13.2189 -0.574015 18.0938 0.0912913 23.2231C0.852571 29.097 4.23604 32.4445 9.6081 32.5575C10.7415 32.5815 11.2673 32.7952 11.3875 34.1256C11.9302 40.2612 15.4409 43.712 21.3221 43.9088C22.0832 43.8801 23.0415 43.8679 23.9828 43.6351C28.3125 42.5713 31.1942 38.7771 31.3143 33.8398C31.3383 32.8432 31.5785 32.4398 32.635 32.4014C35.6752 32.2932 38.2352 31.1189 40.0434 28.6023C42.1063 25.7278 42.5361 22.5076 41.8253 19.1097ZM15.9909 10.6758C15.9909 6.88405 18.1402 4.61241 21.3892 4.90298C22.6885 5.01806 23.7546 5.60407 24.5328 6.65347C25.9927 8.61788 26.072 12.088 24.7416 14.1508C23.7355 15.714 22.2778 16.3935 20.4647 16.2591C18.5869 16.1199 17.254 15.14 16.5408 13.3822C16.1782 12.4914 15.9405 11.5619 15.9909 10.6758ZM22.7172 38.9044C20.7026 39.4902 18.5725 38.8226 17.5495 37.1346C16.1062 34.7572 16.0438 32.2501 17.4366 29.8558C19.1871 26.8469 23.6802 26.9791 25.3731 30.0191C25.9687 31.0878 26.2064 32.2525 26.1873 33.4723C26.1704 36.258 24.8809 38.2775 22.7172 38.9044ZM32.5246 27.5673C31.0285 27.6537 29.8133 27.111 28.7808 26.0257C25.8727 22.971 22.3258 22.241 18.3348 23.2615C16.5361 23.7203 15.0448 24.7192 13.8466 26.1145C12.5282 27.6537 10.8568 28.038 8.97411 27.6875C7.07213 27.3321 6.03228 26.0376 5.50158 24.2583C5.03087 22.6709 5.07906 21.1052 5.65042 19.5491C6.88954 16.1703 10.7486 15.2842 13.2895 17.8801C16.632 21.2973 20.5535 21.7656 24.8762 20.339C26.1849 19.9069 27.3184 19.0977 28.1804 18.0218C29.5852 16.2687 31.4128 15.8628 33.454 16.3431C35.488 16.821 36.4101 18.3891 36.8184 20.3126C36.9263 20.8171 36.9648 21.338 36.9912 21.5302C36.9983 25.0818 35.1685 27.4185 32.5246 27.5673Z" fill="#FA4B00"/>
</svg>
