<svg width="799" height="498" viewBox="0 0 799 498" fill="none" xmlns="http://www.w3.org/2000/svg">
<path d="M798.773 100.7C798.789 74.4771 798.382 48.2539 798.945 22.0465C799.274 6.83954 793.16 0.350219 777.757 0.475314C725.319 0.90533 672.794 -1.23693 620.465 1.1477C527.035 5.41658 457.716 81.2713 459.022 174.725C460.289 265.568 533.892 339.859 625.07 342.338C716.382 344.824 795.966 269.282 798.648 177.11C799.383 151.661 798.758 126.173 798.773 100.7Z" fill="#D7E2D8"/>
<path d="M211.677 285.834C151.678 285.81 91.6793 285.63 31.6882 285.896C6.54404 286.006 3.27593 290.282 6.37204 315.567C18.9676 418.466 110.819 498.848 214.109 497.37C319.415 495.869 408.108 414.111 419.046 309.438C421.032 290.423 412.666 285.685 396.169 285.755C334.669 286.013 273.177 285.857 211.677 285.834Z" fill="#D7E2D8"/>
<path d="M63.3999 0.162575C51.4142 0.162575 39.4207 0.0687538 27.435 0.178212C-1.64969 0.467495 -3.3072 2.64885 3.01012 31.7492C23.8385 127.619 114.556 199.268 213.851 198.267C313.153 197.266 402.885 124.32 422.525 28.6218C427.615 3.85289 425.246 0.436222 400.853 0.154757C373.136 -0.1658 345.404 0.358037 317.688 -0.00161236C304.748 -0.1658 297.813 4.408 293.435 17.6525C280.558 56.6353 248.26 80.2393 211.747 79.7311C174.148 79.215 144.845 56.9715 131.358 16.5423C127.191 4.06399 120.084 0.107846 108.356 0.232942C93.3681 0.389311 78.3879 0.264215 63.3999 0.264215V0.162575Z" fill="#D7E2D8"/>
</svg>
