<svg width="58" height="58" viewBox="0 0 58 58" fill="none" xmlns="http://www.w3.org/2000/svg">
<path d="M0.0415039 54.9939V3.08187C0.544603 1.57152 1.53045 0.562456 3.08859 0.147705H14.3737C16.0356 0.678092 17.1227 1.73027 17.3967 3.50552C17.4567 3.89419 17.4344 4.29688 17.5084 4.68193C17.879 6.60583 19.3967 7.78465 21.4952 7.7851C33.2314 7.78721 44.9678 7.78616 56.704 7.78661C56.9484 7.78661 57.1929 7.79294 57.4373 7.79505C57.7109 7.79731 57.8566 7.92576 57.8558 8.20769C57.8552 8.43338 57.8625 8.65908 57.8625 8.88462C57.8628 20.1319 57.8629 31.3792 57.8628 42.6265C57.8626 46.4633 57.8739 50.3002 57.8561 54.137C57.8463 56.2421 56.1429 57.9584 54.0508 57.9638C48.258 57.9785 42.4651 57.9646 36.6721 57.9788C36.1597 57.9801 35.9865 57.8185 35.9911 57.3017C36.0121 54.932 36.0085 52.562 35.9924 50.1923C35.9895 49.7774 36.1375 49.4864 36.4225 49.2049C37.814 47.8304 39.1929 46.4431 40.5753 45.0591C41.6113 44.0219 41.6736 43.5014 40.9127 42.233C37.7106 36.8952 34.5079 31.5578 31.3056 26.2202C31.1991 26.0429 31.0978 25.8624 30.9888 25.6867C30.8049 25.3901 30.8846 25.2262 31.2326 25.2148C31.646 25.201 32.0601 25.2089 32.4735 25.1952C33.513 25.1605 34.1456 24.5368 34.188 23.4961C34.2049 23.083 34.2216 22.6661 34.1862 22.2556C34.1404 21.7237 34.3781 21.5651 34.8737 21.57C36.4534 21.5857 38.0335 21.5859 39.6133 21.569C40.0482 21.5645 40.2825 21.7234 40.4714 22.1246C41.4315 24.1632 43.0511 25.1923 45.3142 25.1727C48.2078 25.1475 50.4324 22.9329 50.4594 20.0597C50.4869 17.1248 48.2861 14.7979 45.3742 14.7569C43.1084 14.7249 41.4464 15.7484 40.4703 17.8151C40.3114 18.1515 40.1448 18.363 39.7262 18.3582C38.0714 18.339 36.416 18.3442 34.7611 18.3541C34.3611 18.3565 34.1711 18.2165 34.1898 17.7954C34.2099 17.3449 34.2072 16.8921 34.1865 16.4415C34.139 15.4052 33.4808 14.7471 32.4649 14.7429C30.0951 14.7331 27.7252 14.7323 25.3555 14.7436C24.3593 14.7484 23.7072 15.407 23.6721 16.4086C23.657 16.8407 23.6437 17.2754 23.6724 17.706C23.7055 18.2036 23.4961 18.3642 23.0132 18.3583C21.4147 18.339 19.8157 18.3378 18.2173 18.3601C17.7727 18.3663 17.5526 18.1959 17.3647 17.802C16.2727 15.513 14.1755 14.414 11.6732 14.8595C9.7026 15.2105 8.2916 16.328 7.67 18.252C7.04147 20.1976 7.34224 22.033 8.77405 23.5539C11.3327 26.2718 15.7766 25.5374 17.368 22.1621C17.5079 21.8652 17.616 21.577 18.0272 21.5788C19.7387 21.5862 21.4501 21.5823 23.1616 21.5814C23.5077 21.5812 23.6763 21.7348 23.6677 22.0968C23.6558 22.6043 23.6507 23.1133 23.6751 23.62C23.7176 24.5071 24.3348 25.1315 25.2158 25.1855C25.6282 25.2108 26.0433 25.1899 26.4565 25.2054C27.0239 25.2265 27.0694 25.3091 26.8037 25.7883C26.7492 25.8869 26.6878 25.9818 26.6298 26.0786C23.3597 31.5292 20.0887 36.9792 16.8205 42.4309C16.2222 43.4291 16.3012 44.0809 17.1196 44.903C18.5526 46.3427 19.9852 47.7829 21.4323 49.2082C21.7366 49.5079 21.8699 49.8229 21.867 50.2523C21.8513 52.5656 21.8613 54.8789 21.8587 57.1924C21.8578 57.9649 21.8521 57.9697 21.0645 57.9699C15.3656 57.9709 9.66672 57.9712 3.968 57.9673C3.68758 57.9672 3.40067 57.9563 3.12779 57.8989C1.51205 57.5595 0.564202 56.5001 0.0415039 54.9939Z" fill="#FA4B00"/>
<path d="M27.9161 0.147583C29.417 0.646461 30.4167 1.62432 30.8127 3.17899C30.8173 3.19708 30.8239 3.21487 30.8283 3.23312C31.117 4.45702 31.0345 4.56391 29.7961 4.56406C27.1288 4.56421 24.4614 4.56587 21.7939 4.56285C20.8284 4.56165 20.7066 4.42898 20.6552 3.46333C20.6044 2.51277 20.3322 1.61994 19.9092 0.769032C19.8112 0.571983 19.6484 0.393931 19.6779 0.147583H27.9161Z" fill="#FA4B00"/>
<path d="M41.3455 0.147583C43.0968 0.69365 44.1046 1.88107 44.3914 3.68631C44.509 4.42702 44.4007 4.56074 43.657 4.5618C40.8224 4.56572 37.9877 4.56647 35.153 4.56059C34.365 4.55893 34.1946 4.44239 34.1562 3.67757C34.0923 2.40784 33.6489 1.26685 33.1073 0.147583H41.3455Z" fill="#FA4B00"/>
<path d="M54.7749 0.147583C56.3719 0.610579 57.4059 1.62055 57.792 3.25769C57.822 3.38509 57.8436 3.5161 57.8537 3.64666C57.9193 4.49034 57.8585 4.5618 57.0234 4.5627C54.2587 4.56542 51.4938 4.56587 48.7291 4.56255C47.7873 4.56135 47.6865 4.44767 47.6207 3.49861C47.5374 2.29386 47.1313 1.18921 46.5367 0.147583H54.7749Z" fill="#FA4B00"/>
<path d="M27.1793 31.6648C27.3486 31.8787 27.2773 32.1112 27.2776 32.3242C27.2831 35.3318 27.2827 38.3394 27.2798 41.347C27.2795 41.6692 27.2955 41.9853 27.4134 42.2891C27.6757 42.9648 28.334 43.3822 29.0566 43.3301C29.7394 43.2808 30.3168 42.7764 30.4875 42.0871C30.5651 41.7734 30.5739 41.4557 30.5737 41.1353C30.5725 38.203 30.5715 35.2706 30.5766 32.3381C30.5769 32.1228 30.5109 31.8911 30.6637 31.682C30.903 31.7445 30.9547 31.9674 31.0543 32.1329C33.1765 35.6599 35.2861 39.1942 37.4198 42.7141C37.6821 43.1471 37.6604 43.4176 37.2901 43.7717C36.2174 44.7981 35.1749 45.8565 34.1367 46.9182C33.8405 47.2212 33.5284 47.3647 33.0964 47.3625C30.3146 47.3478 27.5325 47.3512 24.7505 47.3595C24.3731 47.3607 24.0675 47.2791 23.7909 46.9967C22.6992 45.8823 21.5971 44.7775 20.4807 43.6878C20.1843 43.3986 20.1588 43.1638 20.3727 42.8097C22.5397 39.222 24.692 35.6255 26.8498 32.0323C26.9331 31.8935 26.9971 31.731 27.1793 31.6648Z" fill="#FA4B00"/>
<path d="M28.874 57.9697C27.8215 57.9697 26.7689 57.9565 25.7169 57.9761C25.2975 57.984 25.0867 57.853 25.0882 57.4083C25.0953 55.3224 25.0941 53.2363 25.0897 51.1503C25.089 50.7457 25.2765 50.5788 25.675 50.5798C27.8362 50.5854 29.9975 50.5879 32.1587 50.5769C32.603 50.5747 32.7551 50.7796 32.7539 51.193C32.7485 53.2602 32.7484 55.3275 32.7539 57.3948C32.755 57.8199 32.5833 57.9871 32.144 57.9775C31.0544 57.9535 29.9641 57.9697 28.874 57.9697Z" fill="#FA4B00"/>
<path d="M30.8962 19.9894C30.8962 20.4772 30.8865 20.9654 30.8995 21.453C30.9087 21.8022 30.7788 21.9716 30.4107 21.9678C29.3975 21.9577 28.384 21.96 27.3708 21.9662C27.0626 21.9681 26.9163 21.8202 26.9151 21.5272C26.9108 20.4953 26.9106 19.4634 26.9139 18.4315C26.915 18.1094 27.0882 17.9592 27.4107 17.9602C28.4053 17.9636 29.3997 17.9631 30.3943 17.9601C30.7408 17.959 30.9101 18.1057 30.8998 18.4694C30.8854 18.9756 30.8962 19.4827 30.8962 19.9894Z" fill="#FA4B00"/>
<path d="M12.5864 21.9631C11.5119 21.961 10.6216 21.0648 10.6164 19.9801C10.6111 18.905 11.5081 17.9844 12.5727 17.9727C13.6823 17.9604 14.5854 18.8492 14.598 19.9659C14.6105 21.0779 13.7167 21.9653 12.5864 21.9631Z" fill="#FA4B00"/>
<path d="M45.2692 21.9628C44.1395 21.9735 43.2531 21.103 43.2476 19.9774C43.2422 18.8786 44.1633 17.9608 45.262 17.9704C46.3168 17.9798 47.2304 18.9041 47.2386 19.9701C47.2466 21.0338 46.3384 21.9527 45.2692 21.9628Z" fill="#FA4B00"/>
</svg>
