<svg width="27" height="27" viewBox="0 0 27 27" fill="none" xmlns="http://www.w3.org/2000/svg">
<path d="M15.9732 21.7683C15.9732 20.3275 15.9797 18.8888 15.969 17.4479C15.9668 17.1914 16.0331 17.0974 16.3025 17.1038C16.9438 17.1209 17.5872 17.1038 18.2285 17.1123C18.4316 17.1166 18.5107 17.0567 18.5407 16.843C18.6839 15.8468 18.8485 14.857 19.0024 13.863C19.0537 13.5359 19.0537 13.5338 18.7138 13.5338H15.6419C15.2443 13.5338 15.2443 13.5316 15.2443 13.1276V11.0989C15.2464 9.85046 15.9497 9.12363 17.2046 9.09798C17.9164 9.08302 18.6283 9.08729 19.338 9.09798C19.5539 9.10012 19.6245 9.03171 19.6202 8.8158C19.6117 7.94788 19.6159 7.07996 19.6181 6.21205C19.6181 6.07523 19.6223 5.95338 19.4364 5.92986C18.0169 5.7503 16.5932 5.55362 15.1716 5.86787C13.2669 6.29114 12.012 7.6828 11.7384 9.626C11.5845 10.7205 11.6529 11.8236 11.6379 12.9245C11.6358 13.0378 11.6294 13.1511 11.6401 13.2623C11.6593 13.4718 11.561 13.5359 11.3664 13.5359C10.6375 13.5295 9.90851 13.5338 9.17954 13.5338C8.72207 13.5338 8.72207 13.5338 8.72207 13.9784C8.72207 14.9254 8.72848 15.8703 8.71779 16.8152C8.71566 17.0418 8.77979 17.1187 9.0128 17.1145C9.78452 17.1016 10.5562 17.1166 11.328 17.1059C11.5631 17.1016 11.6422 17.1743 11.6422 17.4159C11.6358 20.3296 11.6358 23.2455 11.6422 26.1592C11.6422 26.4029 11.5503 26.4328 11.3472 26.3943C7.09312 25.5756 3.93997 23.2668 1.94119 19.4189C1.21437 18.0209 0.821024 16.5138 0.66497 14.9447C0.284455 11.1203 1.36615 7.75121 3.9079 4.88238C5.77414 2.77458 8.1064 1.39574 10.8833 0.863449C15.1224 0.0489745 18.9083 1.04302 22.1385 3.92681C24.4793 6.01537 25.8902 8.64478 26.2878 11.7573C26.7966 15.7356 25.7726 19.2885 23.0833 22.3091C21.2492 24.3678 18.9832 25.7274 16.2939 26.3708C15.9818 26.4456 15.9732 26.4392 15.9732 26.1143V21.7683Z" fill="white"/>
</svg>
