<svg width="67" height="66" viewBox="0 0 67 66" fill="none" xmlns="http://www.w3.org/2000/svg">
<path d="M5.21518 32.6896C5.21518 24.1611 5.21482 15.6326 5.21554 7.10404C5.21572 5.19943 5.96787 4.45523 7.89076 4.45523C15.5995 4.45505 23.3082 4.45559 31.017 4.45722C32.7707 4.45759 33.5285 5.21571 33.5296 6.97054C33.5314 9.70057 33.5319 12.4306 33.5287 15.1606C33.5276 15.928 33.419 16.0191 32.6604 15.9535C31.3863 15.8431 30.2623 15.3441 29.2227 14.6299C28.8815 14.3956 28.5727 14.1042 28.4472 13.7108C27.817 11.7356 26.3114 11.0799 24.4187 11.0719C23.7832 11.0692 23.6302 10.7946 23.5405 10.2487C23.204 8.20061 21.3781 6.69125 19.3409 6.73032C17.2319 6.77084 15.5143 8.25416 15.1845 10.3048C15.1089 10.7751 15.0778 11.2439 15.078 11.7188C15.0801 25.685 15.0807 39.6509 15.0767 53.6169C15.0765 54.275 15.116 54.9262 15.3012 55.5579C15.8323 57.3703 17.5671 58.6479 19.4158 58.6029C21.4275 58.554 23.1736 57.1604 23.5322 55.2194C23.6599 54.5275 23.8873 54.1936 24.6394 54.2339C25.1021 54.2585 25.5795 54.1292 26.0413 54.0284C27.093 53.7991 27.8607 53.1813 28.184 52.1593C28.6869 50.5698 31.3335 49.3368 32.957 49.337C33.319 49.337 33.5333 49.5101 33.5321 49.9231C33.5218 52.9237 33.5458 55.9247 33.5102 58.925C33.4983 59.9438 32.6132 60.7676 31.5783 60.864C31.3314 60.887 31.0812 60.8779 30.8326 60.8779C23.1691 60.8785 15.5058 60.879 7.84228 60.8781C5.93639 60.8778 5.21572 60.1632 5.21554 58.2753C5.21482 49.7467 5.21518 41.2182 5.21518 32.6896Z" fill="#FA4B00"/>
<path d="M17.1551 44.614C17.1548 43.7566 17.1512 42.8992 17.1577 42.0417C17.1591 41.8453 17.0743 41.5817 17.2593 41.4719C17.4923 41.3334 17.6689 41.5854 17.8469 41.7033C19.652 42.8994 21.6409 43.4724 23.8015 43.4549C29.4095 43.4098 33.9606 39.0983 34.4367 33.5282C34.9532 27.4884 30.6298 22.8916 25.4623 22.0577C22.7476 21.6195 20.2045 22.1266 17.876 23.6204C17.6935 23.7374 17.5173 23.9863 17.2885 23.8764C17.0492 23.7613 17.1608 23.4713 17.1599 23.2599C17.153 21.545 17.1698 19.83 17.1515 18.1151C17.1468 17.6661 17.299 17.4199 17.7253 17.2542C19.2915 16.6461 20.4669 15.6063 21.0982 14.0248C21.3083 13.4987 21.6782 13.2393 22.2174 13.1867C23.2321 13.0879 24.2463 13.0827 25.2611 13.1961C25.7832 13.2545 26.1077 13.5233 26.3316 14.0022C27.6437 16.806 30.0401 17.8506 32.9597 17.9975C33.714 18.0355 34.4447 17.8327 35.1252 17.5158C35.5279 17.3284 35.8594 17.3794 36.2008 17.6157C37.1192 18.2511 37.9144 19.0116 38.569 19.9179C38.8575 20.3173 38.9104 20.7091 38.7063 21.1825C38.0962 22.5982 38.12 24.0386 38.6736 25.4655C39.0241 26.3689 39.3778 27.2724 39.9481 28.0736C40.4641 28.7984 41.1619 29.2914 41.9575 29.6336C42.7494 29.9742 43.1512 30.5345 43.2239 31.3823C43.3127 32.419 43.3614 33.4499 43.1648 34.4812C43.0723 34.9661 42.8381 35.3232 42.3578 35.4746C39.5332 36.3655 37.2764 41.3726 38.7089 44.1795C38.927 44.6066 38.8668 45.003 38.5924 45.3865C37.9145 46.3338 37.0783 47.1145 36.1224 47.7766C35.7824 48.0123 35.4515 47.9837 35.0984 47.8323C32.4162 46.6824 30.1103 47.6572 27.9271 49.151C27.1714 49.6682 26.6522 50.4344 26.3293 51.2966C26.139 51.8043 25.8089 52.0599 25.287 52.1223C24.1826 52.2548 23.0819 52.2804 21.9823 52.0726C21.5973 51.9999 21.3088 51.8194 21.163 51.4474C20.5029 49.7635 19.2669 48.6763 17.5996 48.0514C17.2313 47.9133 17.1467 47.6731 17.1514 47.3218C17.1637 46.4193 17.1555 45.5167 17.1551 44.614Z" fill="#FA4B00"/>
<path d="M0.874651 32.5977C0.874651 24.0006 0.870852 15.4035 0.876641 6.80622C0.878811 3.52736 3.07358 0.863357 6.29835 0.214495C6.67117 0.139425 7.06135 0.126582 7.44358 0.126401C15.4246 0.121698 23.4055 0.115366 31.3863 0.12622C34.9599 0.131104 37.8474 3.01652 37.867 6.5877C37.8833 9.54348 37.8737 12.4996 37.8699 15.4556C37.869 16.1755 37.8596 16.1674 37.2127 15.8255C36.8952 15.6578 36.5615 15.4608 36.2172 15.4172C35.6583 15.3463 35.5984 15.0345 35.6004 14.5772C35.6118 12.0275 35.6223 9.47746 35.5995 6.92778C35.5823 5.00814 34.8218 3.51741 32.9726 2.72962C32.3621 2.46968 31.7098 2.38557 31.0502 2.38539C23.2954 2.38303 15.5405 2.37616 7.78565 2.3881C4.94889 2.39244 3.14576 4.18418 3.14449 7.00339C3.13707 24.1301 3.13762 41.2568 3.14377 58.3834C3.14467 61.1886 4.84434 62.9312 7.65993 62.94C15.4372 62.9645 23.2149 62.9679 30.9922 62.938C33.9009 62.9268 35.5923 61.1508 35.6024 58.2332C35.6109 55.7736 35.6161 53.314 35.5953 50.8546C35.5906 50.3128 35.6652 49.9558 36.3091 49.8836C36.6277 49.8479 36.948 49.6542 37.2255 49.4693C37.6971 49.1553 37.8892 49.202 37.8778 49.8127C37.8558 50.9856 37.872 52.1592 37.8719 53.3327C37.8713 55.1604 37.8836 56.9881 37.8664 58.8159C37.8348 62.2121 34.8801 65.1949 31.4878 65.2028C23.3938 65.2216 15.2997 65.2206 7.20589 65.2035C3.81831 65.1965 0.890388 62.2648 0.883153 58.8631C0.864702 50.1081 0.877002 41.3529 0.877002 32.5977H0.874651Z" fill="#FA4B00"/>
<path d="M17.155 32.6449C17.1548 30.9749 17.1704 29.3048 17.1454 27.6351C17.1378 27.1221 17.2802 26.7365 17.6577 26.3817C20.0916 24.0958 22.9709 23.39 26.1269 24.2888C29.4993 25.2492 31.5481 27.6091 32.2982 31.0198C33.1027 34.6773 31.1481 38.6414 27.7513 40.4029C24.3542 42.1648 20.073 41.4776 17.4927 38.7698C17.2359 38.5002 17.149 38.2152 17.151 37.8579C17.1604 36.1204 17.1552 34.3826 17.155 32.6449Z" fill="#FA4B00"/>
<path d="M63.92 33.2054C63.92 35.7313 63.9287 38.2573 63.9122 40.7831C63.9092 41.2391 64.0394 41.5078 64.4629 41.7437C65.7716 42.473 66.3831 44.0227 65.9992 45.4625C65.6293 46.8495 64.359 47.8428 62.9146 47.8743C61.3553 47.9081 60.0382 46.9941 59.6075 45.5786C59.1747 44.156 59.7235 42.5544 61.0073 41.8057C61.5465 41.4911 61.673 41.1306 61.665 40.5623C61.6375 38.5554 61.6327 36.5477 61.6672 34.5411C61.6779 33.9304 61.4657 33.7822 60.8852 33.7846C56.0043 33.8041 51.1233 33.7962 46.2425 33.7952C45.2856 33.7951 45.2856 33.7929 45.3321 32.8072C45.3923 31.5294 45.3923 31.5294 46.7045 31.5294C51.4046 31.5294 56.1049 31.5147 60.8049 31.5451C61.5071 31.5497 61.6885 31.3337 61.6695 30.6597C61.624 29.0372 61.6377 27.4123 61.6663 25.789C61.6755 25.2606 61.5275 24.9398 61.0505 24.6482C59.7669 23.8641 59.1879 22.3256 59.5998 21.0268C60.0649 19.5605 61.3271 18.6547 62.8727 18.6784C64.3422 18.7009 65.5947 19.6855 65.9945 21.1324C66.3539 22.4334 65.7631 23.9055 64.492 24.6741C64.0349 24.9505 63.9057 25.2611 63.9101 25.7631C63.9318 28.2437 63.92 30.7246 63.92 33.2054Z" fill="#FA4B00"/>
<path d="M46.6409 16.5719C44.6972 16.5725 42.7533 16.5548 40.81 16.5826C40.1893 16.5917 39.912 16.4336 39.9357 15.7518C39.9956 14.0281 39.7329 14.2267 41.4467 14.222C44.6335 14.2129 47.8201 14.22 51.0069 14.2187C51.8844 14.2184 51.8851 14.2156 51.8862 13.3083C51.8873 12.4284 51.8563 11.5473 51.8974 10.6696C51.9235 10.1148 51.7632 9.77944 51.2632 9.47066C50.0235 8.70512 49.5458 7.5096 49.7509 6.09936C49.9387 4.80797 50.7307 3.93426 51.9656 3.51477C53.5918 2.96251 55.3548 3.74089 56.057 5.28046C56.7506 6.80122 56.1728 8.66152 54.6866 9.50882C54.2591 9.7523 54.1474 10.0359 54.1521 10.4827C54.1678 12.0164 54.1588 13.5503 54.1517 15.0843C54.1468 16.1367 53.7384 16.5604 52.6753 16.5676C50.6639 16.5812 48.6524 16.5714 46.6409 16.5719Z" fill="#FA4B00"/>
<path d="M46.8275 48.8679C48.8169 48.8681 50.8062 48.8632 52.7957 48.8703C53.7707 48.8737 54.1448 49.2498 54.1504 50.2272C54.1593 51.7389 54.1719 53.251 54.1468 54.7621C54.1383 55.263 54.2632 55.5707 54.7341 55.8408C56.0157 56.5758 56.6149 58.1325 56.2355 59.5194C55.8388 60.9702 54.5927 61.9434 53.1108 61.9602C51.5282 61.9781 50.3001 61.1046 49.8383 59.6325C49.3906 58.2056 49.9826 56.6079 51.3154 55.8307C51.7485 55.5781 51.9127 55.3071 51.8957 54.8175C51.8615 53.8258 51.8565 52.8311 51.8966 51.84C51.9202 51.26 51.6944 51.1166 51.149 51.1197C47.713 51.139 44.2765 51.1303 40.8403 51.1285C39.9518 51.1282 39.9426 51.1244 39.9494 50.2261C39.9612 48.6756 39.7718 48.8797 41.3342 48.8703C43.1651 48.8592 44.9963 48.8677 46.8275 48.8679Z" fill="#FA4B00"/>
<path d="M44.6453 23.953C45.7747 23.953 46.9048 23.9297 48.0332 23.9635C48.5433 23.9789 48.8365 23.8279 49.1042 23.3659C49.8833 22.0225 51.4365 21.4589 52.9126 21.903C54.3248 22.3277 55.2457 23.5997 55.2365 25.1122C55.2273 26.6467 54.2745 27.8731 52.7744 28.2814C51.3558 28.6676 49.8421 28.0797 49.1062 26.7836C48.8546 26.3403 48.5661 26.2078 48.0847 26.2124C46.052 26.2314 44.0185 26.1917 41.9863 26.2297C41.3658 26.2415 41.0647 26.0385 40.8326 25.4675C40.2127 23.9418 40.185 23.953 41.7991 23.953H44.6453Z" fill="#FA4B00"/>
<path d="M44.9839 39.112C45.9558 39.112 46.9292 39.0782 47.8988 39.1247C48.4878 39.1529 48.8322 38.9639 49.1506 38.4528C49.936 37.192 51.45 36.662 52.8089 37.0792C54.1998 37.5061 55.1882 38.8633 55.154 40.299C55.1189 41.7697 54.1184 43.0594 52.7121 43.4471C51.3822 43.8136 49.9087 43.2528 49.1312 42.0115C48.8644 41.5855 48.5668 41.4529 48.0891 41.4515C45.7621 41.4444 43.4352 41.4074 41.1084 41.3793C40.3331 41.3699 40.2809 41.2896 40.5542 40.5527C41.0864 39.1185 41.0864 39.1185 42.6107 39.1185H44.9839V39.112Z" fill="#FA4B00"/>
<path d="M17.1552 52.5913C17.1552 51.9831 17.1474 51.375 17.1574 50.767C17.1675 50.1483 17.28 50.0939 17.824 50.4213C18.4658 50.8075 18.9256 51.359 19.1995 52.0445C19.5806 52.9985 20.1813 53.7093 21.1989 53.9982C21.6198 54.1176 21.6109 54.4224 21.5563 54.7488C21.3693 55.8653 20.3977 56.6022 19.204 56.54C18.111 56.483 17.2096 55.5892 17.1641 54.4828C17.138 53.8533 17.1594 53.2218 17.1594 52.5913H17.1552Z" fill="#FA4B00"/>
<path d="M17.1568 12.6684C17.1568 12.0838 17.1412 11.4984 17.1602 10.9143C17.1953 9.83094 18.0368 8.91327 19.0757 8.80021C20.245 8.67287 21.245 9.35049 21.5292 10.457C21.6437 10.9036 21.5993 11.2343 21.067 11.3881C20.1806 11.644 19.6298 12.2777 19.2868 13.1094C18.9889 13.8319 18.5862 14.4708 17.8749 14.8597C17.6836 14.9643 17.4934 15.1843 17.2673 15.0538C17.0727 14.9413 17.1588 14.6846 17.1561 14.49C17.1476 13.8829 17.153 13.2757 17.153 12.6684H17.1568Z" fill="#FA4B00"/>
</svg>
