<svg width="122" height="44" viewBox="0 0 122 44" fill="none" xmlns="http://www.w3.org/2000/svg">
<path d="M41.8253 19.1097C40.9342 14.8494 37.9302 12.0831 33.6724 11.4082C32.7792 11.2667 31.4152 11.4347 31.0644 10.9952C30.5606 10.3637 30.7523 9.23032 30.6226 8.32487C30.0512 4.36008 27.143 1.15432 23.3441 0.292189C18.9952 -0.692351 14.8576 0.854203 12.5882 4.29542C11.4283 6.05323 10.9288 8.01743 10.8639 10.0802C10.8328 11.0577 10.6093 11.5548 9.51681 11.5428C8.73153 11.5331 7.92471 11.7157 7.15855 11.9269C2.46134 13.2189 -0.574015 18.0938 0.0912913 23.2231C0.852571 29.097 4.23604 32.4445 9.6081 32.5575C10.7415 32.5815 11.2673 32.7952 11.3875 34.1256C11.9302 40.2612 15.4409 43.712 21.3221 43.9088C22.0832 43.8801 23.0415 43.8679 23.9828 43.6351C28.3125 42.5713 31.1942 38.7771 31.3143 33.8398C31.3383 32.8432 31.5785 32.4398 32.635 32.4014C35.6752 32.2932 38.2352 31.1189 40.0434 28.6023C42.1063 25.7278 42.5361 22.5076 41.8253 19.1097ZM15.9909 10.6758C15.9909 6.88405 18.1402 4.61241 21.3892 4.90298C22.6885 5.01806 23.7546 5.60407 24.5328 6.65347C25.9927 8.61788 26.072 12.088 24.7416 14.1508C23.7355 15.714 22.2778 16.3935 20.4647 16.2591C18.5869 16.1199 17.254 15.14 16.5408 13.3822C16.1782 12.4914 15.9405 11.5619 15.9909 10.6758ZM22.7172 38.9044C20.7026 39.4902 18.5725 38.8226 17.5495 37.1346C16.1062 34.7572 16.0438 32.2501 17.4366 29.8558C19.1871 26.8469 23.6802 26.9791 25.3731 30.0191C25.9687 31.0878 26.2064 32.2525 26.1873 33.4723C26.1704 36.258 24.8809 38.2775 22.7172 38.9044ZM32.5246 27.5673C31.0285 27.6537 29.8133 27.111 28.7808 26.0257C25.8727 22.971 22.3258 22.241 18.3348 23.2615C16.5361 23.7203 15.0448 24.7192 13.8466 26.1145C12.5282 27.6537 10.8568 28.038 8.97411 27.6875C7.07213 27.3321 6.03228 26.0376 5.50158 24.2583C5.03087 22.6709 5.07906 21.1052 5.65042 19.5491C6.88954 16.1703 10.7486 15.2842 13.2895 17.8801C16.632 21.2973 20.5535 21.7656 24.8762 20.339C26.1849 19.9069 27.3184 19.0977 28.1804 18.0218C29.5852 16.2687 31.4128 15.8628 33.454 16.3431C35.488 16.821 36.4101 18.3891 36.8184 20.3126C36.9263 20.8171 36.9648 21.338 36.9912 21.5302C36.9983 25.0818 35.1685 27.4185 32.5246 27.5673Z" fill="#FA4B00"/>
<path d="M54.3898 19.4116C52.3002 19.4116 50.7298 18.9065 49.6784 17.8962C48.6268 16.8858 48.1009 15.398 48.1009 13.432C48.1009 11.9751 48.2658 10.6968 48.5958 9.59672C48.9259 8.4973 49.4206 7.58331 50.0804 6.85457C50.7402 6.12603 51.5615 5.57601 52.5444 5.20493C53.5271 4.83364 54.6715 4.6482 55.9777 4.6482C56.4313 4.6482 56.8984 4.68256 57.3797 4.75129C57.8607 4.82022 58.3178 4.91619 58.7509 5.04002C59.1838 5.16365 59.5309 5.30802 59.7922 5.47292C59.9433 5.5693 60.0602 5.65856 60.1425 5.74091C60.2251 5.82347 60.2664 5.94038 60.2664 6.09146C60.2664 6.21529 60.2216 6.40439 60.1324 6.65856C60.0427 6.91313 59.9227 7.17401 59.7715 7.442C59.62 7.7102 59.4622 7.93691 59.2973 8.12255C59.1324 8.3082 58.9742 8.40092 58.8231 8.40092C58.6993 8.40092 58.5478 8.37001 58.3695 8.3082C58.1905 8.24618 57.9742 8.174 57.7198 8.09165C57.4653 8.0091 57.1734 7.94057 56.8435 7.88547C56.5137 7.83077 56.1355 7.80292 55.7095 7.80292C55.0771 7.80292 54.5135 7.91312 54.0188 8.13293C53.5238 8.35293 53.1147 8.67603 52.7918 9.10201C52.4687 9.5282 52.228 10.0607 52.0702 10.7C51.912 11.3393 51.8331 12.0989 51.8331 12.9784C51.8331 13.762 51.9429 14.3978 52.1629 14.8856C52.3827 15.3738 52.7162 15.7278 53.1629 15.9476C53.6095 16.1676 54.156 16.2776 54.8022 16.2776C55.2695 16.2776 55.6853 16.2364 56.0496 16.1538C56.4138 16.0713 56.7333 15.9753 57.0086 15.8651C57.2833 15.7553 57.5206 15.6624 57.7198 15.5867C57.9189 15.5113 58.0736 15.4735 58.1838 15.4735C58.3349 15.4735 58.4793 15.5629 58.6167 15.7415C58.7542 15.9202 58.8709 16.1367 58.9673 16.3909C59.0632 16.6455 59.1356 16.8858 59.1838 17.1125C59.2318 17.3395 59.256 17.5147 59.256 17.6384C59.256 17.8445 59.1905 18.0027 59.0602 18.1127C58.9292 18.2229 58.706 18.3671 58.39 18.5456C58.0323 18.7384 57.62 18.8962 57.1529 19.02C56.6855 19.1436 56.2076 19.2398 55.7198 19.3085C55.2316 19.3773 54.7884 19.4116 54.3898 19.4116Z" fill="white"/>
<path d="M62.0392 19.288C61.5443 19.288 61.1903 19.2193 60.9774 19.0818C60.7641 18.9446 60.6645 18.7451 60.6783 18.4838L61.4207 11.5969C61.4481 11.3222 61.4687 11.0371 61.4825 10.7413C61.4961 10.4458 61.503 10.2155 61.503 10.0506C61.503 9.87204 61.4996 9.72421 61.4929 9.6073C61.4858 9.49059 61.4825 9.37001 61.4825 9.24638C61.4825 9.08147 61.565 8.95094 61.73 8.85456C61.8948 8.75858 62.1043 8.68295 62.3589 8.62784C62.613 8.57294 62.8743 8.53512 63.1423 8.51438C63.4105 8.49384 63.6476 8.48347 63.8538 8.48347C64.1425 8.48347 64.3591 8.51438 64.5032 8.57619C64.6476 8.638 64.7301 8.7964 64.7507 9.05057C64.7714 9.30494 64.7334 9.71384 64.6372 10.2773C64.8296 9.87875 65.0632 9.53186 65.3383 9.23601C65.6132 8.94057 65.9054 8.71039 66.2147 8.54529C66.5239 8.38039 66.8298 8.29783 67.1323 8.29783C67.3932 8.29783 67.5859 8.34623 67.7096 8.4422C67.8334 8.53858 67.9123 8.65874 67.9467 8.80311C67.9808 8.94748 67.9983 9.10913 67.9983 9.28765C67.9983 9.53511 67.9704 9.81022 67.9158 10.1124C67.8607 10.4149 67.785 10.7071 67.6889 10.9887C67.5927 11.2706 67.4829 11.4938 67.359 11.6589C67.2352 11.8238 67.0977 11.9062 66.9467 11.9062C66.809 11.9062 66.6545 11.8619 66.4826 11.7722C66.3107 11.6829 66.1081 11.6382 65.8745 11.6382C65.6545 11.6382 65.4379 11.7071 65.225 11.8444C65.0115 11.982 64.8434 12.1815 64.7198 12.4424L64.1012 18.5043C64.0736 18.7797 63.9327 18.9787 63.6785 19.1026C63.4239 19.2262 63.0563 19.288 62.5754 19.288H62.0392Z" fill="white"/>
<path d="M72.5551 19.4116C70.8777 19.4116 69.6236 19.0338 68.792 18.2776C67.9603 17.5218 67.5445 16.4289 67.5445 14.9991C67.5445 13.9407 67.675 12.9958 67.9363 12.164C68.1974 11.3324 68.5756 10.6278 69.0703 10.0506C69.5654 9.4731 70.1736 9.03695 70.8952 8.7411C71.6169 8.44565 72.4381 8.29783 73.3592 8.29783C74.2527 8.29783 74.978 8.40458 75.5347 8.61747C76.0914 8.83076 76.5139 9.10201 76.8027 9.43182C77.0914 9.76183 77.2872 10.0988 77.3903 10.4422C77.4934 10.786 77.545 11.1022 77.545 11.3907C77.545 12.0231 77.4245 12.5764 77.1841 13.0505C76.9434 13.5249 76.6172 13.9165 76.2049 14.226C75.7923 14.5351 75.3147 14.7691 74.7718 14.9269C74.2285 15.0851 73.6547 15.164 73.05 15.164C72.4861 15.164 71.9674 15.1264 71.4932 15.0507C71.019 14.9753 70.5823 14.8826 70.184 14.7724L70.9882 13.762C70.9603 13.9269 70.9398 14.1126 70.9261 14.3187C70.9123 14.5249 70.9056 14.7382 70.9056 14.958C70.9056 15.6176 71.0772 16.0749 71.4211 16.3291C71.7645 16.5837 72.3696 16.7105 73.2356 16.7105C73.7852 16.7105 74.2561 16.6522 74.6479 16.5353C75.0398 16.4186 75.3557 16.3018 75.5965 16.1847C75.8369 16.0682 76.0121 16.0094 76.1223 16.0094C76.2734 16.0094 76.3869 16.1095 76.4625 16.3086C76.5379 16.5078 76.5894 16.7451 76.6172 17.0198C76.6445 17.2949 76.6583 17.5286 76.6583 17.7209C76.6583 17.9822 76.5038 18.2435 76.1945 18.5043C75.8853 18.7656 75.4316 18.9822 74.8336 19.154C74.2356 19.3256 73.4759 19.4116 72.5551 19.4116ZM72.184 12.9991C72.4861 12.9991 72.7511 12.9753 72.9778 12.9269C73.2047 12.8789 73.4072 12.8171 73.5861 12.7413C73.7647 12.6658 73.9056 12.5731 74.0089 12.4629C74.1119 12.3531 74.1872 12.2397 74.2356 12.1227C74.2836 12.0062 74.3078 11.8789 74.3078 11.7413C74.3078 11.4253 74.1943 11.1984 73.9676 11.0609C73.7407 10.9237 73.4418 10.8545 73.0707 10.8545C72.6856 10.8545 72.3489 10.9371 72.0603 11.1022C71.7716 11.2671 71.5412 11.5009 71.3696 11.8031C71.1976 12.1057 71.0979 12.4767 71.0705 12.9165C71.2354 12.9442 71.4176 12.9649 71.6169 12.9786C71.8161 12.9924 72.0052 12.9991 72.184 12.9991Z" fill="white"/>
<path d="M81.5863 19.4322C81.0638 19.4322 80.593 19.336 80.1737 19.1436C79.7545 18.9513 79.4007 18.6662 79.1119 18.2878C78.8232 17.91 78.6032 17.4393 78.4521 16.8755C78.3007 16.312 78.2254 15.6727 78.2254 14.9578C78.2254 13.9407 78.3285 13.0268 78.5347 12.2155C78.7409 11.4046 79.0363 10.7071 79.4212 10.1225C79.8059 9.53857 80.2667 9.09164 80.8027 8.78237C81.3389 8.47311 81.9436 8.31837 82.6172 8.31837C83.0432 8.31837 83.4143 8.37713 83.7307 8.49364C84.0468 8.61056 84.3216 8.75492 84.5554 8.92674C84.789 9.09876 84.9746 9.2535 85.1121 9.39054C85.1808 9.18457 85.253 9.00929 85.3287 8.86473C85.4041 8.72056 85.5416 8.61056 85.741 8.53492C85.9403 8.45948 86.2463 8.42146 86.6587 8.42146H87.071C87.5521 8.42146 87.9027 8.48347 88.1227 8.6071C88.3423 8.73093 88.4387 8.92349 88.4112 9.18457L87.6896 15.9682C87.6757 16.1882 87.7067 16.3429 87.7825 16.4322C87.8577 16.5219 87.985 16.5662 88.1639 16.5662C88.2876 16.5662 88.401 16.5454 88.5041 16.5044C88.6072 16.4631 88.6794 16.4426 88.7207 16.4426C88.7754 16.4426 88.8134 16.4702 88.8339 16.5249C88.8547 16.58 88.8648 16.6764 88.8648 16.8136V17.092C88.8648 17.2089 88.8579 17.3533 88.8443 17.5249C88.8305 17.6969 88.803 17.8996 88.7617 18.1333C88.7207 18.4497 88.5897 18.7002 88.3701 18.8858C88.1499 19.0714 87.8958 19.2054 87.6072 19.288C87.3185 19.3703 87.0299 19.4116 86.7412 19.4116C86.3699 19.4116 86.0365 19.3602 85.741 19.2571C85.4454 19.1538 85.1947 18.9856 84.9885 18.7518C84.7823 18.5182 84.631 18.2158 84.5349 17.8445C84.2185 18.3258 83.8098 18.7105 83.3079 18.9993C82.8061 19.288 82.2323 19.4322 81.5863 19.4322ZM83.009 16.628C83.2288 16.628 83.4281 16.5867 83.607 16.5044C83.7856 16.4218 83.9438 16.3084 84.0812 16.1642C84.2185 16.0198 84.3287 15.8651 84.4112 15.7002L84.6585 13.0609C84.7 12.7722 84.7443 12.5042 84.7927 12.2567C84.8407 12.0093 84.8923 11.7689 84.9472 11.5351C84.8649 11.4389 84.7617 11.3566 84.6379 11.2876C84.5143 11.2189 84.3663 11.164 84.1947 11.1227C84.0226 11.0815 83.8474 11.0609 83.6689 11.0609C83.3112 11.0609 83.009 11.1469 82.7616 11.3186C82.5141 11.4906 82.3112 11.7413 82.1534 12.0711C81.9952 12.4011 81.8817 12.7927 81.813 13.2464C81.7441 13.7 81.7099 14.202 81.7099 14.7516C81.7099 15.178 81.7545 15.532 81.8441 15.8136C81.9334 16.0955 82.0741 16.3016 82.2667 16.4322C82.459 16.5629 82.7065 16.628 83.009 16.628Z" fill="white"/>
<path d="M93.0506 19.4116C92.4455 19.4116 91.9234 19.2984 91.4835 19.0715C91.0435 18.8447 90.7206 18.4873 90.5145 17.9993C90.3083 17.5115 90.2465 16.8893 90.329 16.1331L90.8237 11.3289H90.329C89.8203 11.3289 89.6072 10.9442 89.6897 10.1742L89.731 9.59673C89.7995 9.21202 89.8959 8.92674 90.0195 8.7411C90.1434 8.55566 90.3357 8.46273 90.597 8.46273H91.2155L91.7517 6.60711C91.8341 6.33221 91.9713 6.1364 92.1641 6.01928C92.3562 5.90277 92.6383 5.844 93.0094 5.844H93.4837C93.9374 5.844 94.2601 5.91619 94.4528 6.06055C94.6452 6.20492 94.7277 6.41476 94.7003 6.68946L94.5146 8.46273H95.5868C96.0954 8.46273 96.3013 8.84093 96.2053 9.59673L96.1435 10.1742C96.0884 10.5729 95.9992 10.8649 95.8755 11.0506C95.7517 11.236 95.5592 11.3289 95.2981 11.3289H94.2466L93.7722 15.8858C93.7312 16.1744 93.755 16.3702 93.8447 16.4735C93.9337 16.5765 94.0885 16.628 94.3085 16.628C94.487 16.628 94.6385 16.6109 94.7621 16.5765C94.8857 16.5424 94.9921 16.5078 95.0817 16.4735C95.171 16.4393 95.2499 16.4218 95.3188 16.4218C95.3735 16.4218 95.4148 16.4562 95.4426 16.5249C95.4699 16.5938 95.4837 16.69 95.4837 16.8136C95.4837 16.9373 95.4733 17.092 95.4528 17.2774C95.4323 17.4631 95.4044 17.6625 95.3705 17.8756C95.3359 18.0887 95.2912 18.2847 95.2363 18.4631C95.1673 18.6695 95.0232 18.8447 94.8034 18.9889C94.5831 19.1333 94.3219 19.2398 94.0197 19.3085C93.7171 19.3773 93.3941 19.4116 93.0506 19.4116Z" fill="white"/>
<path d="M99.2362 19.4116C98.7 19.4116 98.2429 19.3154 97.8651 19.1231C97.4868 18.9307 97.2188 18.6318 97.061 18.2262C96.9028 17.8207 96.858 17.288 96.9269 16.6282L97.6691 9.2051C97.6966 8.94423 97.8342 8.74821 98.0815 8.61747C98.3292 8.48693 98.707 8.42166 99.2157 8.42166H99.6899C100.198 8.42166 100.563 8.49059 100.783 8.62784C101.002 8.76529 101.099 8.95094 101.071 9.18456L100.37 15.9684C100.356 16.1746 100.388 16.326 100.463 16.422C100.539 16.5184 100.659 16.5662 100.824 16.5662C100.961 16.5662 101.075 16.5456 101.164 16.5044C101.253 16.4631 101.326 16.4425 101.381 16.4425C101.449 16.4425 101.494 16.4771 101.515 16.5456C101.535 16.6146 101.546 16.7107 101.546 16.8344C101.546 16.9446 101.535 17.0957 101.515 17.288C101.494 17.4806 101.47 17.6798 101.443 17.8858C101.415 18.0922 101.367 18.2847 101.298 18.4633C101.243 18.6695 101.099 18.8447 100.865 18.9891C100.631 19.1335 100.367 19.24 100.071 19.3087C99.7755 19.3773 99.4973 19.4116 99.2362 19.4116ZM99.5868 7.4113C98.9957 7.4113 98.5662 7.34623 98.298 7.21549C98.03 7.08495 97.9028 6.89585 97.9166 6.64839L98.061 5.26674C98.0884 5.00586 98.2498 4.81005 98.5455 4.67911C98.8409 4.54877 99.2982 4.4833 99.9168 4.4833C100.535 4.4833 100.971 4.54531 101.226 4.66894C101.48 4.79256 101.6 4.99203 101.587 5.26674L101.443 6.64839C101.415 6.89585 101.253 7.08495 100.958 7.21549C100.662 7.34623 100.206 7.4113 99.5868 7.4113Z" fill="white"/>
<path d="M105.566 19.288C105.223 19.288 104.931 19.25 104.69 19.1745C104.449 19.0991 104.302 18.9446 104.247 18.7107L102.082 9.34947C102.068 9.26692 102.054 9.18457 102.041 9.10201C102.027 9.01946 102.02 8.95765 102.02 8.91637C102.02 8.7104 102.14 8.57619 102.381 8.51438C102.621 8.45257 102.982 8.42166 103.463 8.42166H104.391C104.652 8.42166 104.893 8.45948 105.113 8.53512C105.333 8.61076 105.449 8.75147 105.463 8.95765L106.391 16.0095H106.474L108.866 8.95765C108.948 8.73785 109.099 8.59368 109.319 8.52475C109.539 8.45602 109.793 8.42166 110.082 8.42166H110.969C111.464 8.42166 111.807 8.45257 112 8.51438C112.192 8.57619 112.288 8.69677 112.288 8.8753C112.288 8.94423 112.275 9.01641 112.247 9.09165C112.22 9.16749 112.185 9.2535 112.144 9.34947L108.02 18.7107C107.91 18.9446 107.732 19.0991 107.484 19.1745C107.237 19.25 106.927 19.288 106.556 19.288H105.566Z" fill="white"/>
<path d="M117.01 19.4116C115.333 19.4116 114.079 19.0338 113.247 18.2776C112.415 17.5218 111.999 16.4289 111.999 14.9991C111.999 13.9407 112.13 12.9958 112.391 12.164C112.652 11.3324 113.031 10.6278 113.525 10.0506C114.02 9.4731 114.629 9.03695 115.35 8.7411C116.072 8.44565 116.893 8.29783 117.814 8.29783C118.708 8.29783 119.433 8.40458 119.99 8.61747C120.546 8.83076 120.969 9.10201 121.258 9.43182C121.546 9.76183 121.742 10.0988 121.845 10.4422C121.948 10.786 122 11.1022 122 11.3907C122 12.0231 121.879 12.5764 121.639 13.0505C121.398 13.5249 121.072 13.9165 120.66 14.226C120.247 14.5351 119.77 14.7691 119.227 14.9269C118.683 15.0851 118.11 15.164 117.505 15.164C116.941 15.164 116.422 15.1264 115.948 15.0507C115.474 14.9753 115.037 14.8826 114.639 14.7724L115.443 13.762C115.415 13.9269 115.395 14.1126 115.381 14.3187C115.367 14.5249 115.361 14.7382 115.361 14.958C115.361 15.6176 115.532 16.0749 115.876 16.3291C116.219 16.5837 116.825 16.7105 117.691 16.7105C118.24 16.7105 118.711 16.6522 119.103 16.5353C119.495 16.4186 119.811 16.3018 120.051 16.1847C120.292 16.0682 120.467 16.0094 120.577 16.0094C120.728 16.0094 120.842 16.1095 120.917 16.3086C120.993 16.5078 121.044 16.7451 121.072 17.0198C121.099 17.2949 121.113 17.5286 121.113 17.7209C121.113 17.9822 120.959 18.2435 120.649 18.5043C120.34 18.7656 119.887 18.9822 119.289 19.154C118.69 19.3256 117.931 19.4116 117.01 19.4116ZM116.639 12.9991C116.941 12.9991 117.206 12.9753 117.433 12.9269C117.66 12.8789 117.862 12.8171 118.041 12.7413C118.22 12.6658 118.361 12.5731 118.464 12.4629C118.567 12.3531 118.642 12.2397 118.69 12.1227C118.739 12.0062 118.763 11.8789 118.763 11.7413C118.763 11.4253 118.649 11.1984 118.423 11.0609C118.196 10.9237 117.897 10.8545 117.526 10.8545C117.141 10.8545 116.804 10.9371 116.515 11.1022C116.227 11.2671 115.996 11.5009 115.825 11.8031C115.653 12.1057 115.553 12.4767 115.525 12.9165C115.69 12.9442 115.873 12.9649 116.072 12.9786C116.271 12.9924 116.46 12.9991 116.639 12.9991Z" fill="white"/>
<path d="M54.3898 37.9026C52.3002 37.9026 50.7298 37.3975 49.6784 36.3871C48.6268 35.3767 48.1009 33.889 48.1009 31.9229C48.1009 30.466 48.2658 29.1877 48.5958 28.0877C48.9259 26.9882 49.4206 26.0742 50.0804 25.3455C50.7402 24.617 51.5615 24.0669 52.5444 23.6959C53.5271 23.3246 54.6715 23.1391 55.9777 23.1391C56.4313 23.1391 56.8984 23.1735 57.3797 23.2422C57.8607 23.3111 58.3178 23.4071 58.7509 23.531C59.1838 23.6546 59.5309 23.799 59.7922 23.9639C59.9433 24.0602 60.0602 24.1495 60.1425 24.2318C60.2251 24.3144 60.2664 24.4313 60.2664 24.5824C60.2664 24.7062 60.2216 24.8953 60.1324 25.1495C60.0427 25.4041 59.9227 25.6649 59.7715 25.9329C59.62 26.2011 59.4622 26.4278 59.2973 26.6135C59.1324 26.7991 58.9742 26.8919 58.8231 26.8919C58.6993 26.8919 58.5478 26.8609 58.3695 26.7991C58.1905 26.7371 57.9742 26.6649 57.7198 26.5826C57.4653 26.5 57.1734 26.4315 56.8435 26.3764C56.5137 26.3217 56.1355 26.2938 55.7095 26.2938C55.0771 26.2938 54.5135 26.4041 54.0188 26.6239C53.5238 26.8439 53.1147 27.167 52.7918 27.5929C52.4687 28.0191 52.228 28.5517 52.0702 29.1909C51.912 29.8302 51.8331 30.5899 51.8331 31.4693C51.8331 32.2529 51.9429 32.8888 52.1629 33.3766C52.3827 33.8648 52.7162 34.2188 53.1629 34.4386C53.6095 34.6586 54.156 34.7684 54.8022 34.7684C55.2695 34.7684 55.6853 34.7273 56.0496 34.6448C56.4138 34.5622 56.7333 34.4662 57.0086 34.356C57.2833 34.2462 57.5206 34.1533 57.7198 34.0777C57.9189 34.0022 58.0736 33.9642 58.1838 33.9642C58.3349 33.9642 58.4793 34.0539 58.6167 34.2324C58.7542 34.4111 58.8709 34.6277 58.9673 34.8818C59.0632 35.1364 59.1356 35.3767 59.1838 35.6035C59.2318 35.8304 59.256 36.0057 59.256 36.1293C59.256 36.3355 59.1905 36.4937 59.0602 36.6037C58.9292 36.7139 58.706 36.858 58.39 37.0366C58.0323 37.2293 57.62 37.3871 57.1529 37.5109C56.6855 37.6346 56.2076 37.7308 55.7198 37.7995C55.2316 37.8682 54.7884 37.9026 54.3898 37.9026Z" fill="white"/>
<path d="M65.4209 37.9026C63.8813 37.9026 62.6991 37.504 61.8744 36.7065C61.0494 35.9095 60.6371 34.7684 60.6371 33.2838C60.6371 32.7342 60.6816 32.1637 60.7711 31.5724C60.8605 30.9815 61.0254 30.3971 61.266 29.8197C61.5063 29.2424 61.8432 28.7304 62.2763 28.2835C62.7094 27.8369 63.2625 27.4762 63.9361 27.2011C64.6096 26.9262 65.4343 26.7888 66.4105 26.7888C67.95 26.7888 69.1287 27.1875 69.9469 27.9846C70.7645 28.782 71.1736 29.9227 71.1736 31.4075C71.1736 32.026 71.1185 32.6482 71.0087 33.2735C70.8985 33.8991 70.7096 34.49 70.4416 35.0467C70.1736 35.6035 69.8159 36.0984 69.3694 36.5313C68.9225 36.9644 68.3761 37.3013 67.7302 37.5416C67.084 37.782 66.3143 37.9026 65.4209 37.9026ZM65.6889 35.1602C65.991 35.1602 66.2523 35.0951 66.4725 34.9644C66.6921 34.8338 66.8849 34.6586 67.0498 34.4386C67.2147 34.2188 67.3385 33.9575 67.4209 33.6549C67.5034 33.3528 67.5652 33.0193 67.6065 32.6549C67.6478 32.2908 67.6683 31.9093 67.6683 31.5106C67.6683 30.8508 67.541 30.3558 67.2869 30.026C67.0325 29.696 66.6508 29.5309 66.1425 29.5309C65.8261 29.5309 65.5549 29.5929 65.3282 29.7166C65.1012 29.8404 64.9085 30.0124 64.7507 30.2322C64.5925 30.4522 64.4689 30.7168 64.3796 31.026C64.2899 31.3353 64.2249 31.6688 64.1836 32.026C64.1425 32.3835 64.1218 32.7682 64.1218 33.1808C64.1218 33.8269 64.2523 34.3184 64.5136 34.6549C64.7745 34.992 65.1663 35.1602 65.6889 35.1602Z" fill="white"/>
<path d="M75.8541 37.9026C75.1392 37.9026 74.5204 37.7344 73.9983 37.3975C73.4757 37.0608 73.0735 36.5591 72.7921 35.8922C72.5101 35.2257 72.3694 34.4111 72.3694 33.4487C72.3694 32.5415 72.4757 31.6858 72.6888 30.8817C72.9019 30.0775 73.2044 29.3697 73.5961 28.7578C73.9879 28.1464 74.4757 27.6651 75.0602 27.3146C75.6442 26.964 76.3077 26.7888 77.0499 26.7888C77.531 26.7888 77.981 26.8748 78.4004 27.0466C78.8197 27.2186 79.1599 27.4144 79.4211 27.634L79.9366 22.8504C79.9641 22.6308 80.0877 22.4657 80.3077 22.3555C80.5275 22.2457 80.8439 22.1906 81.2563 22.1906H82.1841C82.5966 22.1906 82.8988 22.2595 83.0913 22.3968C83.2837 22.5344 83.3662 22.6993 83.3388 22.8917L82.143 34.4591C82.1151 34.6791 82.1393 34.8338 82.2152 34.9231C82.2904 35.0128 82.4177 35.0571 82.5966 35.0571C82.7202 35.0571 82.83 35.0364 82.9264 34.9953C83.0224 34.954 83.0982 34.9335 83.1531 34.9335C83.208 34.9335 83.2461 34.9611 83.2666 35.0158C83.2873 35.0709 83.2977 35.1673 83.2977 35.3046C83.2977 35.3735 83.2941 35.4662 83.2873 35.5829C83.2802 35.6998 83.2699 35.8442 83.2564 36.0158C83.2424 36.1878 83.2219 36.3906 83.1944 36.6242C83.1531 36.9406 83.0224 37.1911 82.8028 37.3767C82.5828 37.5624 82.3286 37.6964 82.0399 37.7789C81.7512 37.8613 81.4624 37.9026 81.1737 37.9026C80.775 37.9026 80.4211 37.8475 80.1119 37.7376C79.8026 37.6277 79.5517 37.456 79.3593 37.2222C79.1666 36.9886 79.0224 36.686 78.9262 36.3149C78.6377 36.7824 78.2284 37.1638 77.6993 37.4593C77.17 37.7547 76.555 37.9026 75.8541 37.9026ZM77.2355 35.1189C77.4417 35.1189 77.6444 35.0777 77.8437 34.9953C78.043 34.9127 78.2217 34.7993 78.3799 34.6551C78.5377 34.5108 78.6719 34.3426 78.7819 34.1498L79.0294 31.5518C79.0706 31.2631 79.1151 30.9951 79.1633 30.7477C79.2113 30.5002 79.2563 30.2599 79.2973 30.026C79.2012 29.9299 79.0773 29.8475 78.9262 29.7786C78.7748 29.7098 78.6135 29.6549 78.4417 29.6137C78.2697 29.5724 78.0808 29.5519 77.8746 29.5519C77.5169 29.5519 77.2079 29.6379 76.9468 29.8095C76.6855 29.9815 76.4726 30.2322 76.3077 30.562C76.1426 30.892 76.0222 31.2837 75.9468 31.7373C75.8712 32.1909 75.8333 32.6858 75.8333 33.222C75.8333 33.8818 75.9468 34.3631 76.1735 34.6653C76.4004 34.9678 76.7542 35.1189 77.2355 35.1189Z" fill="white"/>
<path d="M89.0088 37.9026C87.3315 37.9026 86.0773 37.5248 85.2457 36.7686C84.414 36.0128 83.9982 34.9199 83.9982 33.49C83.9982 32.4317 84.1288 31.4868 84.39 30.6549C84.6511 29.8233 85.0293 29.1188 85.524 28.5413C86.0192 27.964 86.6273 27.5279 87.3489 27.232C88.0706 26.9366 88.8918 26.7888 89.813 26.7888C90.7064 26.7888 91.4317 26.8955 91.9884 27.1084C92.5451 27.3217 92.9677 27.5929 93.2564 27.9228C93.5451 28.2528 93.7409 28.5897 93.844 28.9331C93.9471 29.2769 93.9988 29.5931 93.9988 29.8817C93.9988 30.514 93.8782 31.0673 93.6378 31.5415C93.3971 32.0159 93.071 32.4075 92.6586 32.7169C92.246 33.026 91.7684 33.26 91.2255 33.4178C90.6822 33.576 90.1084 33.6549 89.5037 33.6549C88.9398 33.6549 88.4211 33.6173 87.947 33.5417C87.4728 33.4662 87.036 33.3735 86.6377 33.2633L87.4419 32.2529C87.414 32.4178 87.3935 32.6035 87.3799 32.8097C87.366 33.0158 87.3593 33.2291 87.3593 33.4489C87.3593 34.1086 87.5309 34.5659 87.8748 34.82C88.2182 35.0746 88.8233 35.2015 89.6893 35.2015C90.2389 35.2015 90.7098 35.1431 91.1017 35.0262C91.4935 34.9095 91.8095 34.7928 92.0502 34.6756C92.2906 34.5591 92.4658 34.5004 92.576 34.5004C92.7271 34.5004 92.8406 34.6004 92.9162 34.7995C92.9916 34.9987 93.0431 35.236 93.071 35.5107C93.0982 35.7859 93.112 36.0195 93.112 36.2118C93.112 36.4731 92.9575 36.7344 92.6482 36.9953C92.339 37.2566 91.8853 37.4731 91.2873 37.6449C90.6893 37.8165 89.9297 37.9026 89.0088 37.9026ZM88.6377 31.49C88.9398 31.49 89.2048 31.4662 89.4315 31.4178C89.6584 31.3699 89.8609 31.3078 90.0399 31.2322C90.2184 31.1568 90.3593 31.064 90.4626 30.9538C90.5657 30.844 90.6409 30.7306 90.6893 30.6137C90.7373 30.497 90.7615 30.3699 90.7615 30.2322C90.7615 29.9162 90.648 29.6893 90.4213 29.5519C90.1944 29.4146 89.8955 29.3455 89.5244 29.3455C89.1393 29.3455 88.8026 29.428 88.5141 29.5931C88.2253 29.758 87.9949 29.9919 87.8233 30.294C87.6513 30.5966 87.5517 30.9677 87.5242 31.4075C87.6891 31.4351 87.8713 31.4559 88.0706 31.4695C88.2698 31.4833 88.459 31.49 88.6377 31.49Z" fill="white"/>
<path d="M96.5346 37.7789C96.0396 37.7789 95.6856 37.7102 95.4728 37.5728C95.2594 37.4355 95.1598 37.236 95.1736 36.9747L95.916 30.0878C95.9435 29.8131 95.964 29.5281 95.9778 29.2322C95.9914 28.9368 95.9984 28.7064 95.9984 28.5415C95.9984 28.363 95.9949 28.2151 95.9882 28.0982C95.9811 27.9815 95.9778 27.8609 95.9778 27.7373C95.9778 27.5724 96.0604 27.4419 96.2253 27.3455C96.3902 27.2495 96.5996 27.1739 96.8542 27.1188C97.1083 27.0639 97.3696 27.026 97.6376 27.0053C97.9058 26.9848 98.1429 26.9744 98.3491 26.9744C98.6378 26.9744 98.8544 27.0053 98.9985 27.0671C99.1429 27.1292 99.2254 27.2873 99.246 27.5415C99.2667 27.7959 99.2287 28.2048 99.1325 28.7682C99.3249 28.3697 99.5585 28.0228 99.8336 27.7269C100.109 27.4315 100.401 27.2013 100.71 27.0362C101.019 26.8713 101.325 26.7888 101.628 26.7888C101.888 26.7888 102.081 26.8371 102.205 26.9331C102.329 27.0295 102.408 27.1497 102.442 27.2941C102.476 27.4384 102.494 27.6001 102.494 27.7786C102.494 28.026 102.466 28.3012 102.411 28.6033C102.356 28.9059 102.28 29.1981 102.184 29.4797C102.088 29.7615 101.978 29.9848 101.854 30.1499C101.731 30.3148 101.593 30.3971 101.442 30.3971C101.304 30.3971 101.15 30.3528 100.978 30.2631C100.806 30.1739 100.603 30.1291 100.37 30.1291C100.15 30.1291 99.9333 30.1981 99.7204 30.3353C99.5069 30.473 99.3387 30.6724 99.2151 30.9333L98.5965 36.9953C98.5689 37.2706 98.428 37.4697 98.1738 37.5935C97.9192 37.7171 97.5516 37.7789 97.0707 37.7789H96.5346Z" fill="white"/>
<path d="M105.545 37.9026C105.174 37.9026 104.789 37.8717 104.39 37.8098C103.992 37.748 103.617 37.6588 103.267 37.5419C102.916 37.4251 102.634 37.2771 102.421 37.0984C102.208 36.9198 102.109 36.7139 102.123 36.4798C102.15 36.0951 102.208 35.772 102.298 35.5107C102.387 35.2499 102.5 35.0504 102.638 34.9127C102.775 34.7755 102.892 34.7066 102.989 34.7066C103.126 34.7066 103.298 34.7582 103.504 34.8611C103.71 34.9644 103.964 35.0675 104.267 35.1706C104.569 35.2737 104.92 35.3251 105.319 35.3251C105.703 35.3251 105.995 35.2704 106.195 35.1602C106.394 35.0504 106.494 34.8715 106.494 34.624C106.494 34.4178 106.422 34.2426 106.277 34.0984C106.133 33.954 105.94 33.8302 105.7 33.7271C105.459 33.624 105.208 33.5038 104.947 33.3664C104.631 33.2291 104.346 33.0673 104.092 32.8819C103.837 32.6962 103.607 32.49 103.401 32.2631C103.195 32.0364 103.033 31.7755 102.916 31.4797C102.799 31.1842 102.741 30.844 102.741 30.4589C102.741 29.6618 102.927 28.9919 103.298 28.4486C103.669 27.9057 104.177 27.4933 104.824 27.2115C105.47 26.9299 106.191 26.7888 106.989 26.7888C107.319 26.7888 107.672 26.8093 108.051 26.8506C108.429 26.8919 108.796 26.9608 109.154 27.0567C109.511 27.1531 109.796 27.2768 110.009 27.428C110.222 27.5793 110.315 27.7717 110.288 28.0053C110.274 28.2391 110.209 28.4899 110.092 28.7578C109.975 29.026 109.837 29.2562 109.679 29.4486C109.521 29.6413 109.373 29.7373 109.236 29.7373C109.044 29.7373 108.8 29.6722 108.504 29.5415C108.208 29.4109 107.8 29.3455 107.277 29.3455C106.961 29.3455 106.7 29.3939 106.494 29.4899C106.288 29.5862 106.185 29.7578 106.185 30.0053C106.185 30.2115 106.263 30.38 106.422 30.5106C106.579 30.6413 106.789 30.7615 107.051 30.8713C107.311 30.9815 107.6 31.1187 107.917 31.2836C108.164 31.3938 108.408 31.5348 108.649 31.7066C108.889 31.8786 109.105 32.0744 109.298 32.294C109.49 32.5142 109.648 32.7651 109.772 33.0468C109.896 33.3288 109.958 33.662 109.958 34.0468C109.958 34.858 109.765 35.552 109.381 36.1293C108.995 36.7067 108.473 37.1468 107.813 37.4489C107.154 37.7511 106.397 37.9026 105.545 37.9026Z" fill="white"/>
</svg>
