<svg width="58" height="58" viewBox="0 0 58 58" fill="none" xmlns="http://www.w3.org/2000/svg">
<path d="M11.6368 0.120239H46.2079C46.217 0.289282 46.2339 0.458175 46.2339 0.627218C46.2351 12.8264 46.2356 25.0254 46.2339 37.2245C46.2338 37.9684 46.2027 37.9956 45.4138 37.9957C34.4194 37.9969 23.4253 37.9969 12.431 37.9957C11.6309 37.9956 11.6157 37.9749 11.6095 37.168C11.6089 37.074 11.6092 36.9798 11.6092 36.8856C11.6092 24.9125 11.609 12.9393 11.6104 0.96621C11.6104 0.684119 11.6276 0.402179 11.6368 0.120239ZM27.9136 31.7402C28.2741 31.8081 28.3172 31.5378 28.3846 31.3027C28.7275 30.1097 29.0679 28.9158 29.409 27.7224C30.4685 24.0151 31.5199 20.3055 32.5968 16.6033C32.7423 16.1031 32.6332 15.8757 32.1294 15.7594C31.5071 15.6158 30.8859 15.4497 30.2853 15.2342C29.7668 15.0481 29.5546 15.1945 29.4099 15.7151C28.5935 18.6505 27.7478 21.578 26.9111 24.5079C26.3585 26.443 25.8014 28.3769 25.2538 30.3135C25.182 30.5679 25.0012 30.8897 25.4212 31.0182C26.2482 31.2711 27.0824 31.5008 27.9136 31.7402ZM24.2918 10.829C26.8315 10.829 29.3713 10.8174 31.9108 10.8383C32.454 10.8427 32.6564 10.6592 32.6234 10.1175C32.588 9.5364 32.6173 8.95154 32.6151 8.36834C32.612 7.61429 32.5825 7.58138 31.8094 7.58078C28.7994 7.57852 25.7892 7.57957 22.7792 7.57972C20.7286 7.57987 18.6779 7.59029 16.6274 7.57399C16.1151 7.56991 15.9121 7.7628 15.9347 8.2728C15.9604 8.85494 15.9376 9.4389 15.9406 10.0221C15.9444 10.7956 15.9731 10.8276 16.7289 10.8284C19.2498 10.8306 21.7708 10.8293 24.2918 10.829ZM22.5274 20.258C22.4912 20.1992 22.4554 20.1082 22.3923 20.0442C21.7842 19.4286 21.1721 18.817 20.56 18.2053C20.3231 17.9685 20.1586 18.143 19.993 18.3085C18.4102 19.8918 16.8322 21.4799 15.2395 23.0532C14.9398 23.3495 14.9576 23.5573 15.248 23.8447C16.8263 25.4058 18.3972 26.9744 19.9549 28.556C20.2465 28.8521 20.4366 28.8004 20.6922 28.5317C21.1849 28.0139 21.6863 27.5028 22.2105 27.0174C22.5476 26.7053 22.5667 26.4706 22.2212 26.1416C21.4314 25.3893 20.6824 24.5941 19.8962 23.8378C19.5956 23.5483 19.595 23.3435 19.8961 23.0538C20.6821 22.2973 21.4449 21.5166 22.2138 20.7425C22.3437 20.6116 22.5054 20.4973 22.5274 20.258ZM37.4589 18.0916C37.386 18.1476 37.2746 18.216 37.1841 18.3055C36.6493 18.8345 36.13 19.3797 35.5837 19.8965C35.2517 20.2106 35.3128 20.4439 35.6159 20.7361C36.3739 21.4671 37.0899 22.2423 37.862 22.9574C38.2733 23.338 38.2336 23.5854 37.8456 23.9485C37.0632 24.6804 36.3283 25.4628 35.5622 26.2125C35.3093 26.4599 35.279 26.6635 35.5453 26.9211C36.1127 27.4704 36.6727 28.0279 37.2203 28.5969C37.4686 28.855 37.6458 28.799 37.874 28.5688C39.45 26.98 41.0313 25.3963 42.6209 23.8207C42.8956 23.5484 42.8998 23.3453 42.6227 23.0707C41.0195 21.4825 39.4278 19.8826 37.831 18.2877C37.7395 18.1964 37.6548 18.0867 37.4589 18.0916ZM39.0927 10.827C39.8457 10.827 40.5987 10.8202 41.3516 10.8299C41.7283 10.8347 41.9078 10.6773 41.9037 10.2936C41.8963 9.57836 41.8942 8.86294 41.9047 8.14768C41.9108 7.73503 41.7141 7.57806 41.3176 7.57987C39.8305 7.58697 38.3434 7.58697 36.8562 7.58002C36.4558 7.57821 36.2682 7.74529 36.2741 8.15356C36.2841 8.84981 36.2877 9.54666 36.2721 10.2429C36.2622 10.6865 36.4664 10.8421 36.8904 10.8326C37.6242 10.8161 38.3586 10.8281 39.0927 10.827Z" fill="#FA4B00"/>
<path d="M0 41.2441C0.357556 41.2473 0.715113 41.2535 1.07267 41.2535C19.6117 41.2539 38.1508 41.2542 56.6898 41.2532C58.1158 41.2531 57.8248 41.2947 57.8848 42.4499C58.0612 45.8465 55.9054 48.1263 53.6341 48.8896C52.9473 49.1203 52.2434 49.1993 51.5227 49.1993C36.4656 49.197 21.4084 49.2021 6.35134 49.194C3.27416 49.1924 1.01984 47.4616 0.144894 44.4957C0.102482 44.3515 0.0485999 44.2108 0 44.0685V41.2441Z" fill="#FA4B00"/>
<path d="M0 13.7906C0.436343 11.9308 1.39385 10.4443 3.05576 9.43684C4.59224 8.50544 6.28026 8.52173 7.98186 8.58739C8.21233 8.59615 8.31376 8.74919 8.33081 8.95732C8.34907 9.18191 8.35375 9.40816 8.35375 9.6338C8.35481 18.7236 8.35466 27.8136 8.35436 36.9035C8.35436 37.0917 8.34953 37.2797 8.34726 37.468C8.34319 37.7985 8.21957 37.997 7.84632 37.9952C5.23083 37.9817 2.61549 37.976 0 37.9679V13.7906Z" fill="#FA4B00"/>
<path d="M49.4904 23.2819C49.4902 18.6895 49.4895 14.097 49.4909 9.50457C49.4912 8.57498 49.4976 8.57121 50.4432 8.5703C51.2706 8.56955 52.0985 8.54163 52.9179 8.70901C55.7405 9.28527 57.8671 11.8279 57.8728 14.7176C57.8876 22.2275 57.8795 29.7372 57.8781 37.247C57.878 37.9684 57.8499 37.9942 57.0994 37.9953C54.8409 37.9985 52.5822 37.9979 50.3237 37.9959C49.5304 37.9953 49.4924 37.9622 49.4919 37.1723C49.4892 32.5421 49.4905 27.912 49.4904 23.2819Z" fill="#FA4B00"/>
<path d="M28.9104 57.9939C23.6035 57.9939 18.2968 57.9943 12.9899 57.9934C12.0816 57.9933 12.0756 57.9863 12.0731 57.0862C12.0713 56.4275 12.0893 55.7684 12.0697 55.1103C12.0558 54.6446 12.2671 54.4678 12.7114 54.4737C13.4075 54.4829 14.1041 54.4616 14.8 54.4746C15.2395 54.4828 15.4453 54.3323 15.4543 53.8552C15.4798 52.5126 15.496 52.513 16.8245 52.513C25.0294 52.513 33.2342 52.5128 41.4391 52.5134C42.3947 52.5134 42.3947 52.5153 42.3978 53.4836C42.4008 54.4708 42.4008 54.4705 43.407 54.4725C43.9903 54.4735 44.5738 54.4817 45.157 54.4757C45.5713 54.4713 45.7826 54.6348 45.7733 55.0776C45.7576 55.83 45.7551 56.5834 45.7757 57.3355C45.7889 57.8161 45.6036 58.0074 45.1131 57.9999C43.7773 57.9794 42.441 57.9939 41.1049 57.9939C37.0401 57.994 32.9753 57.9939 28.9104 57.9939Z" fill="#FA4B00"/>
</svg>
