<svg width="58" height="67" viewBox="0 0 58 67" fill="none" xmlns="http://www.w3.org/2000/svg">
<path d="M53.009 0.988403C53.3826 1.22454 53.6338 1.55551 53.8301 1.95205C54.9158 4.14404 56.0166 6.32846 57.109 8.51701C57.4706 9.24125 57.4465 9.27756 56.6194 9.27808C53.9153 9.2798 51.2113 9.281 48.5073 9.2767C47.8467 9.27567 47.8001 9.20786 48.0849 8.63473C49.2214 6.34842 50.3697 4.06797 51.5046 1.7808C51.6745 1.43864 51.9338 1.19855 52.2361 0.988403H53.009Z" fill="#FA4B00"/>
<path d="M22.7344 49.474C15.456 49.474 8.17752 49.4744 0.899161 49.4735C0.017786 49.4733 0.0148602 49.4704 0.0146881 48.5864C0.0141718 38.9464 0.0117622 29.3062 0.016065 19.666C0.017614 16.5582 2.2251 14.3445 5.32652 14.3435C18.4021 14.3393 31.4774 14.3414 44.5528 14.3419C45.4493 14.3419 45.4512 14.3445 45.4527 15.2133C45.4543 16.1367 45.4409 17.0601 45.4565 17.9829C45.4634 18.3898 45.3175 18.5853 44.8965 18.5553C44.6829 18.54 44.4672 18.5547 44.2526 18.5547C31.5206 18.5547 18.7888 18.5547 6.05695 18.555C5.7993 18.555 5.5401 18.5433 5.28452 18.5677C4.66493 18.6268 4.30935 18.9751 4.24119 19.5956C4.21796 19.808 4.22794 20.0245 4.22794 20.2391C4.22742 27.904 4.22708 35.5689 4.22777 43.2337C4.22777 45.1023 4.38559 45.2608 6.23336 45.2608C18.9652 45.261 31.6972 45.2608 44.429 45.261C45.452 45.2611 45.4524 45.262 45.4531 46.2666C45.4538 47.1039 45.4285 47.9422 45.4615 48.7784C45.4825 49.3081 45.297 49.4895 44.7627 49.4831C42.7663 49.4592 40.7693 49.474 38.7726 49.474C33.4266 49.4742 28.0805 49.474 22.7344 49.474Z" fill="#FA4B00"/>
<path d="M28.9885 51.4448C38.2824 51.4448 47.5763 51.4446 56.8703 51.4452C57.8189 51.4452 57.8198 51.4468 57.8208 52.3947C57.8217 53.1459 57.8255 53.8972 57.8189 54.6485C57.794 57.4991 55.548 59.7739 52.704 59.7754C36.8422 59.7835 20.9802 59.7835 5.11838 59.7751C2.30851 59.7737 0.0457819 57.4989 0.0172117 54.6999C0.0086062 53.8628 0.0495684 53.0238 0.00309868 52.1892C-0.0309791 51.5761 0.215138 51.4186 0.785166 51.4348C1.96464 51.4685 3.14583 51.4448 4.3265 51.4448H28.9885ZM13.4335 56.5966C14.3781 56.5966 15.3229 56.6071 16.2673 56.5932C17.0117 56.5821 17.4848 56.2009 17.5025 55.6365C17.5208 55.0508 17.0287 54.6368 16.2513 54.6323C14.3836 54.6214 12.5157 54.6213 10.6479 54.6326C9.90286 54.6373 9.43059 55.0232 9.41286 55.5882C9.39445 56.1734 9.88703 56.5825 10.6639 56.5937C11.587 56.6068 12.5103 56.5967 13.4335 56.5966ZM6.20525 56.6131C6.20542 56.597 6.20577 56.5806 6.20594 56.5644C6.59164 56.5644 6.98405 56.6097 7.36131 56.5536C7.8878 56.4752 8.22754 56.1288 8.21463 55.5854C8.20276 55.076 7.87196 54.7361 7.3713 54.6722C6.62623 54.5774 5.86912 54.5771 5.12457 54.671C4.59757 54.7376 4.25869 55.0956 4.27143 55.6393C4.28364 56.1489 4.61582 56.4721 5.11511 56.5539C5.47206 56.6122 5.84141 56.596 6.20525 56.6131Z" fill="#FA4B00"/>
<path d="M25.8925 20.5255C32.1183 20.5255 38.344 20.5251 44.5695 20.526C45.4497 20.5261 45.4523 20.5291 45.4526 21.4141C45.4538 24.5053 45.4552 27.5966 45.4489 30.688C45.4483 30.9131 45.5678 31.2386 45.3459 31.3422C45.1034 31.4556 44.962 31.1324 44.8052 30.9763C42.5834 28.7656 40.3701 26.5464 38.1517 24.3322C37.349 23.5308 36.9738 23.5326 36.1673 24.3386C32.2196 28.2843 28.2675 32.2258 24.3356 36.1873C23.9093 36.6167 23.6551 36.6652 23.2104 36.2052C21.6739 34.6156 20.0957 33.0661 18.5288 31.5059C17.7806 30.761 17.3801 30.7603 16.6361 31.5035C13.4008 34.7349 10.1686 37.9693 6.93531 41.2026C6.82895 41.3088 6.72602 41.4187 6.61467 41.5194C6.52311 41.6024 6.42707 41.742 6.29368 41.6585C6.22863 41.6179 6.21572 41.4735 6.20385 41.3731C6.18887 41.2459 6.19816 41.1158 6.19816 40.9871C6.19799 34.4609 6.19765 27.9348 6.19851 21.4086C6.19868 20.5289 6.20161 20.526 7.08694 20.526C13.3555 20.5251 19.6241 20.5255 25.8925 20.5255ZM23.7895 29.7832C25.3734 29.7963 26.8073 28.3613 26.793 26.7773C26.7779 25.1053 25.4147 23.7274 23.7708 23.7226C22.1362 23.7178 20.7234 25.1315 20.732 26.7629C20.7406 28.4091 22.1178 29.7695 23.7895 29.7832Z" fill="#FA4B00"/>
<path d="M37.809 43.2899C35.5123 43.2899 33.2159 43.2824 30.9194 43.297C30.5012 43.2996 30.1876 43.1762 29.8938 42.8783C28.4622 41.4265 27.0256 39.9791 25.5666 38.555C25.1954 38.1927 25.2272 37.9676 25.5788 37.6177C29.2911 33.9237 32.9945 30.2208 36.6835 26.5037C37.0751 26.1094 37.306 26.1629 37.6671 26.528C40.1123 29 42.5728 31.4567 45.0381 33.9088C45.3339 34.2031 45.4625 34.5135 45.4601 34.9326C45.446 37.4652 45.4379 39.9982 45.4644 42.5304C45.4704 43.1163 45.292 43.3092 44.6985 43.3016C42.4022 43.2727 40.1056 43.2899 37.809 43.2899Z" fill="#FA4B00"/>
<path d="M51.6371 27.3395C51.6371 32.3618 51.6376 37.3843 51.6366 42.4067C51.6364 43.2867 51.6335 43.2882 50.7486 43.2898C49.8473 43.2913 48.9453 43.2707 48.0446 43.2966C47.562 43.3104 47.3743 43.118 47.4235 42.6537C47.4324 42.5688 47.424 42.4822 47.424 42.3963C47.424 32.3086 47.4236 22.2208 47.4245 12.1331C47.4245 11.2531 47.4276 11.2517 48.3123 11.25C49.1709 11.2484 50.0311 11.2828 50.8874 11.2386C51.4915 11.2075 51.6493 11.4379 51.6472 12.0146C51.6293 16.9941 51.6371 21.9736 51.6371 26.9531V27.3395Z" fill="#FA4B00"/>
<path d="M57.821 27.272C57.821 32.3158 57.8215 37.3597 57.8205 42.4037C57.8204 43.2866 57.8176 43.2882 56.9359 43.2897C56.0344 43.2913 55.1323 43.2711 54.2317 43.2966C53.7525 43.3102 53.558 43.1245 53.6071 42.6569C53.6183 42.5507 53.608 42.4424 53.608 42.335C53.608 32.2902 53.6078 22.2453 53.6081 12.2005C53.6083 11.2518 53.61 11.251 54.5575 11.2499C55.3946 11.2489 56.2333 11.2823 57.0682 11.2389C57.6673 11.2079 57.8338 11.4299 57.8315 12.0115C57.8126 16.7979 57.821 21.5843 57.821 26.3705V27.272Z" fill="#FA4B00"/>
<path d="M26.8554 66.9946C23.1636 66.9948 19.4719 66.9896 15.7803 66.9999C15.1894 67.0017 14.706 66.8621 14.4967 66.2592C14.2585 65.5733 14.7266 64.8944 15.4744 64.8546C16.0739 64.8229 16.6766 64.8283 17.2768 64.8484C17.6418 64.8608 17.827 64.7135 17.9184 64.3686C18.1053 63.664 18.3253 62.9677 18.5094 62.2625C18.6061 61.8919 18.8041 61.7458 19.1939 61.7465C24.3021 61.7554 29.4105 61.7554 34.5187 61.7465C34.9087 61.7456 35.1067 61.8924 35.2036 62.2625C35.3881 62.9677 35.6077 63.664 35.7944 64.3687C35.8858 64.7138 36.071 64.8637 36.436 64.8481C36.9503 64.826 37.4661 64.8387 37.9812 64.8448C38.8211 64.8545 39.2769 65.2486 39.2628 65.9441C39.2493 66.6057 38.7979 66.9915 37.9948 66.9926C34.2817 66.997 30.5685 66.9944 26.8554 66.9946Z" fill="#FA4B00"/>
<path d="M7.78809 43.2473C7.84213 42.9227 8.03833 42.8063 8.18497 42.6593C11.1263 39.7113 14.0782 36.7735 17.0059 33.8122C17.4231 33.39 17.6741 33.3179 18.1307 33.7811C21.0848 36.7769 24.0692 39.7428 27.0401 42.7218C27.169 42.8511 27.4162 42.9684 27.3337 43.1741C27.2496 43.3839 26.9907 43.2858 26.8107 43.286C20.6499 43.2908 14.4892 43.2903 8.32834 43.2884C8.16036 43.2882 7.99238 43.2634 7.78809 43.2473Z" fill="#FA4B00"/>
<path d="M52.5643 49.4732C51.0628 49.4733 49.5612 49.4613 48.0598 49.4804C47.5955 49.4864 47.4053 49.3355 47.4175 48.8536C47.4428 47.846 47.4363 46.8373 47.4208 45.8294C47.4144 45.4203 47.5657 45.2565 47.9831 45.2578C51.0718 45.2673 54.1608 45.267 57.2497 45.2578C57.6553 45.2566 57.831 45.3962 57.8243 45.817C57.8078 46.8462 57.8037 47.8765 57.8259 48.9056C57.836 49.3776 57.612 49.4816 57.1975 49.4782C55.6532 49.4652 54.1088 49.473 52.5643 49.4732Z" fill="#FA4B00"/>
<path d="M24.8338 26.7625C24.8296 27.3888 24.3532 27.8443 23.7237 27.8239C23.1259 27.8046 22.691 27.3487 22.695 26.7457C22.6991 26.1177 23.1727 25.6648 23.8044 25.685C24.4025 25.7041 24.8377 26.1598 24.8338 26.7625Z" fill="#FA4B00"/>
</svg>
