<svg width="776" height="1230" viewBox="0 0 776 1230" fill="none" xmlns="http://www.w3.org/2000/svg">
<path d="M765.731 535.385C740.788 416.154 656.716 338.738 537.559 319.849C512.553 315.885 474.383 320.584 464.571 308.288C450.465 290.611 455.836 258.889 452.203 233.552C436.213 122.592 354.822 32.869 248.498 8.74351C126.784 -18.8078 10.99 24.4753 -52.5166 120.78C-84.984 169.973 -98.9666 224.952 -100.778 282.683C-101.647 310.038 -107.899 323.948 -138.482 323.617C-160.455 323.347 -183.038 328.45 -204.473 334.36C-335.937 370.522 -420.888 506.954 -402.269 650.506C-380.958 814.892 -286.268 908.579 -135.926 911.746C-104.204 912.419 -89.4862 918.391 -86.1226 955.629C-70.9393 1127.34 27.322 1223.92 191.915 1229.43C213.215 1228.63 240.032 1228.29 266.372 1221.76C387.548 1192 468.204 1085.81 471.558 947.629C472.23 919.736 478.958 908.444 508.527 907.378C593.613 904.346 665.255 871.485 715.855 801.054C773.587 720.605 785.623 630.479 765.731 535.385ZM42.7122 299.346C42.7122 193.229 102.865 129.65 193.789 137.785C230.148 141.014 259.997 157.409 281.762 186.781C322.634 241.749 324.849 338.872 287.61 396.604C259.458 440.352 218.659 459.365 167.914 455.608C115.358 451.706 78.0672 424.289 58.1024 375.097C47.9492 350.154 41.3046 324.144 42.7122 299.346ZM230.955 1089.37C174.569 1105.76 114.954 1087.08 86.3264 1039.84C45.9413 973.307 44.1922 903.135 83.1697 836.13C132.166 751.924 257.906 755.619 305.288 840.705C321.961 870.616 328.606 903.207 328.078 937.352C327.602 1015.31 291.512 1071.83 230.955 1089.37ZM505.433 772.085C463.567 774.507 429.558 759.314 400.661 728.937C319.27 643.447 220.005 623.017 108.309 651.582C57.9678 664.416 16.227 692.381 -17.3065 731.421C-54.2037 774.507 -100.975 785.261 -153.666 775.449C-206.895 765.503 -235.999 729.278 -250.851 679.475C-264.026 635.054 -262.68 591.232 -246.68 547.68C-212.008 453.124 -104.007 428.316 -32.8933 500.971C60.6588 596.604 170.408 609.717 291.377 569.787C328.005 557.699 359.728 535.043 383.853 504.935C423.172 455.877 474.311 444.513 531.442 457.957C588.366 471.329 614.178 515.223 625.594 569.053C628.627 583.17 629.703 597.753 630.438 603.124C630.645 702.524 579.424 767.914 505.433 772.085Z" stroke="#FA4B00"/>
</svg>
