<svg width="58" height="58" viewBox="0 0 58 58" fill="none" xmlns="http://www.w3.org/2000/svg">
<path d="M12.4097 0.126343H45.3514C46.2138 0.539447 46.5356 1.22082 46.5341 2.17739C46.517 13.7033 46.5234 25.2294 46.5226 36.7554C46.5225 38.195 45.8971 38.8271 44.4722 38.8273C34.0776 38.8283 23.6831 38.8283 13.2885 38.8273C11.8639 38.8271 11.2385 38.1947 11.2383 36.7553C11.2376 25.2292 11.2441 13.7032 11.2266 2.17724C11.2251 1.21931 11.5491 0.540351 12.4097 0.126343ZM28.7805 8.67296C31.8812 8.67296 34.9819 8.67251 38.0825 8.67387C38.3841 8.67402 38.6818 8.66513 38.9738 8.57274C39.6961 8.34411 40.1315 7.76432 40.131 7.01768C40.1306 6.27723 39.6839 5.68945 38.9635 5.47228C38.6527 5.37853 38.3359 5.36859 38.0152 5.36874C31.889 5.37024 25.7628 5.36889 19.6368 5.37296C19.3571 5.37311 19.0704 5.38712 18.7991 5.44831C17.9075 5.64951 17.4317 6.32441 17.5167 7.22687C17.5984 8.09588 18.3116 8.66724 19.3658 8.6698C22.504 8.67703 25.6422 8.67236 28.7805 8.67296ZM35.4377 24.9035H35.4516C35.4516 25.412 35.4193 25.9229 35.4583 26.4283C35.5376 27.4536 36.5846 28.113 37.5513 27.7739C38.2706 27.5217 38.6879 26.9106 38.6456 25.9938C38.6143 25.3199 38.7983 24.9421 39.4519 24.6075C41.2564 23.6843 42.1928 22.1134 42.252 20.0932C42.35 16.7454 39.1757 14.1699 35.9127 14.8979C33.5794 15.4184 31.7719 17.6099 31.8509 19.8227C31.8807 20.6564 32.382 21.3288 33.0674 21.4545C33.9171 21.6103 34.5993 21.2127 34.9182 20.3472C35.0347 20.0311 35.0727 19.6861 35.1875 19.3694C35.4619 18.6123 36.0084 18.1587 36.8099 18.0696C37.6589 17.9751 38.3202 18.3129 38.7446 19.0583C39.4686 20.3295 38.615 21.8397 37.105 21.9773C35.9902 22.0789 35.4577 22.6507 35.4387 23.7736C35.4323 24.1501 35.4377 24.5269 35.4377 24.9035ZM20.5373 19.0691V19.0718C21.6083 19.0718 22.6792 19.0786 23.7502 19.0699C24.873 19.0608 25.585 18.4283 25.5961 17.4491C25.6074 16.4555 24.9229 15.7874 23.8013 15.7768C21.6408 15.7563 19.4799 15.7687 17.3193 15.7729C16.9384 15.7736 16.5724 15.8574 16.2483 16.0716C15.6725 16.4523 15.3865 17.1625 15.5532 17.787C15.7578 18.5538 16.3599 19.0441 17.2118 19.0631C18.3199 19.0878 19.4288 19.0691 20.5373 19.0691ZM20.5495 25.8515V25.8535C21.6392 25.8535 22.7291 25.8622 23.8188 25.8506C24.6744 25.8416 25.3212 25.4034 25.5336 24.7219C25.8759 23.6238 25.139 22.5902 23.9017 22.5675C21.6664 22.5262 19.43 22.5507 17.1943 22.5628C16.8165 22.5649 16.4545 22.6823 16.1461 22.9257C15.6162 23.344 15.3872 24.0223 15.574 24.6345C15.799 25.371 16.3891 25.8292 17.2239 25.8461C18.3321 25.8685 19.4409 25.8515 20.5495 25.8515ZM20.5284 32.6331V32.6351C21.6369 32.6351 22.7457 32.6496 23.8539 32.6309C24.9163 32.6128 25.6053 31.9371 25.596 30.9659C25.5866 29.9857 24.8881 29.3468 23.7541 29.3387C21.631 29.3236 19.5078 29.3333 17.3847 29.3348C16.984 29.3351 16.5981 29.408 16.2559 29.6309C15.6783 30.007 15.3875 30.7194 15.5505 31.3426C15.7511 32.1099 16.3535 32.6066 17.2028 32.6267C18.3108 32.6527 19.4198 32.6331 20.5284 32.6331ZM35.4455 31.8636C35.4371 32.7759 36.1206 33.494 37.017 33.5149C37.8705 33.5348 38.6415 32.7762 38.6525 31.9056C38.6634 31.041 37.9204 30.2678 37.0583 30.2466C36.1956 30.2255 35.4538 30.9691 35.4455 31.8636Z" fill="#FA4B00"/>
<path d="M0 50.0876C0.411144 49.2216 1.09176 48.9018 2.04698 48.9026C19.9269 48.9175 37.8068 48.9134 55.6867 48.9139C57.1991 48.9139 57.8115 49.5187 57.8009 51.0312C57.7949 51.8965 57.9064 52.7726 57.7373 53.6253C57.2665 55.999 55.782 57.4094 53.474 58H4.28687C1.9989 57.429 0.567283 55.9999 0 53.7047V50.0876Z" fill="#FA4B00"/>
<path d="M28.8564 45.6098C20.2837 45.6101 11.711 45.6103 3.13828 45.6098C2.21411 45.6097 2.21276 45.6086 2.21276 44.693C2.21246 33.9187 2.21231 23.1443 2.21291 12.3698C2.21306 10.8604 2.81953 10.2574 4.33359 10.2561C5.29242 10.2552 6.25231 10.2841 7.20964 10.2454C7.76818 10.2228 7.96079 10.3905 7.95311 10.9727C7.92266 13.2515 7.9409 15.531 7.94105 17.8101C7.94105 24.0451 7.94241 30.2798 7.93879 36.5146C7.93849 37.1012 7.97737 37.6846 8.11452 38.252C8.68572 40.6164 10.6831 42.1231 13.2823 42.1281C18.6026 42.1385 23.9229 42.1315 29.2432 42.1315C34.2816 42.1315 39.3199 42.1332 44.3582 42.1297C45.3465 42.1288 46.3097 41.9859 47.1838 41.4842C49.0303 40.4241 49.8175 38.7696 49.8183 36.6923C49.8216 28.3669 49.8198 20.0413 49.8198 11.7157C49.8198 10.2558 49.8198 10.2558 51.2755 10.2558C52.0839 10.2559 52.8924 10.2507 53.7006 10.2577C54.8408 10.2677 55.5444 10.95 55.5449 12.079C55.5491 23.0418 55.5431 34.0045 55.5594 44.9672C55.5603 45.5807 55.2727 45.6163 54.7999 45.6157C46.1522 45.6076 37.5043 45.6097 28.8564 45.6098Z" fill="#FA4B00"/>
</svg>
