<svg width="24" height="27" viewBox="0 0 24 27" fill="none" xmlns="http://www.w3.org/2000/svg">
<path d="M16.9262 0.589632C17.0167 1.08383 17.0167 1.58905 17.138 2.08104C17.7778 4.71527 20.0171 6.69204 22.7153 6.98106C22.8808 7.00092 23.0485 7.02739 23.2161 7.02077C23.4257 7.01636 23.4919 7.10461 23.4897 7.30537C23.4831 8.07976 23.4875 8.85194 23.4875 9.62411C23.4875 10.0698 23.4897 10.5154 23.4875 10.9589C23.4853 11.2677 23.4721 11.2876 23.1544 11.2744C21.5571 11.2104 20.0348 10.8419 18.6051 10.1139C18.1242 9.869 17.6675 9.58881 17.2262 9.28215C17.1623 9.23582 17.1027 9.12992 17.0144 9.18287C16.9372 9.23141 16.9769 9.33951 16.9769 9.41893C16.9791 12.3929 17.0211 15.3669 16.9769 18.3387C16.9284 21.6436 15.3907 24.0991 12.4454 25.5729C7.84097 27.8762 2.18422 25.2133 1.01271 20.2515C-0.0639235 15.6846 2.98949 11.1949 7.64903 10.4934C8.39473 10.3808 9.13602 10.3742 9.88393 10.4537C10.0538 10.4713 10.1376 10.5353 10.1376 10.7206C10.1332 12.0046 10.131 13.2886 10.1376 14.5749C10.1376 14.8308 10.0031 14.7823 9.84202 14.7425C7.79464 14.2263 5.73403 15.4507 5.2288 17.4827C4.61327 19.9536 6.57239 22.3077 9.11617 22.1555C11.1415 22.0341 12.677 20.4302 12.6792 18.4027C12.688 12.6069 12.6836 6.81339 12.6858 1.01764C12.6858 0.874235 12.6902 0.733037 12.6925 0.589632H16.9262Z" fill="white"/>
</svg>
