<svg width="43" height="43" viewBox="0 0 43 43" fill="none" xmlns="http://www.w3.org/2000/svg">
<path d="M42.7505 21.5044C42.7351 33.0902 33.2689 42.524 21.704 42.4787C10.11 42.4335 0.785853 33.0202 0.801533 21.3762C0.816909 9.86383 10.2773 0.499477 21.8704 0.521094C33.3533 0.542712 42.7657 10.0014 42.7505 21.5044ZM21.8132 10.004C13.3828 10.0046 7.86103 18.8738 11.6024 26.4303C11.8479 26.9263 11.8855 27.3501 11.7321 27.8673C11.3212 29.2522 10.9548 30.6502 10.5739 32.0437C10.3145 32.9937 10.3174 32.9961 11.235 32.7573C12.6581 32.3872 14.087 32.037 15.4999 31.6316C16.0684 31.4686 16.5424 31.505 17.0896 31.758C21.3088 33.7093 26.3038 32.8603 29.6663 29.6585C33.0409 26.4451 34.1342 21.505 32.4234 17.201C30.6925 12.8469 26.5011 10.0037 21.8132 10.004Z" fill="#32D651"/>
<path d="M21.8132 10.0039C26.5012 10.0036 30.6927 12.8467 32.4234 17.2009C34.1343 21.505 33.0411 26.4449 29.6664 29.6583C26.304 32.8602 21.309 33.7092 17.0898 31.758C16.5426 31.505 16.0684 31.4686 15.5001 31.6316C14.0871 32.0369 12.6582 32.387 11.2352 32.7573C10.3174 32.996 10.3145 32.9937 10.5741 32.0437C10.9548 30.65 11.3212 29.252 11.7321 27.8673C11.8857 27.35 11.8481 26.9263 11.6026 26.4303C7.86121 18.8738 13.3828 10.0045 21.8132 10.0039ZM21.8217 30.8497C25.9298 30.8461 29.5782 28.1765 30.8247 24.2622C32.0827 20.3116 30.6281 16.0224 27.2238 13.644C23.8428 11.2821 19.3637 11.3819 16.0768 13.8926C12.8042 16.3922 11.3926 20.7821 12.9715 24.5616C13.6477 26.1804 13.7162 27.6255 13.2831 29.2127C13.2432 29.359 13.2271 29.512 13.1864 29.658C13.0643 30.0956 13.1852 30.2633 13.6635 30.1638C14.5561 29.978 15.4601 29.8465 16.35 29.65C16.772 29.5566 17.1208 29.6019 17.5069 29.8056C18.8527 30.5153 20.2992 30.8494 21.8217 30.8497Z" fill="#F8FBF8"/>
<path d="M21.8218 30.8496C20.2992 30.8496 18.8526 30.5153 17.507 29.8055C17.1208 29.602 16.772 29.5568 16.35 29.65C15.4602 29.8467 14.5561 29.978 13.6635 30.1639C13.1852 30.2635 13.0644 30.0957 13.1864 29.6582C13.2272 29.512 13.2432 29.3592 13.2832 29.2127C13.7162 27.6257 13.6477 26.1805 12.9714 24.5616C11.3926 20.7821 12.8041 16.3923 16.0767 13.8926C19.3637 11.3819 23.8429 11.2822 27.2238 13.6442C30.6282 16.0225 32.0827 20.3116 30.8246 24.2623C29.5781 28.1766 25.9298 30.8461 21.8218 30.8496ZM24.6321 27.2311C25.5473 27.2576 26.4831 26.8846 27.0449 26.328C27.9432 25.4377 27.8132 24.4593 26.7174 23.8664C26.4944 23.7458 26.2721 23.6241 26.0479 23.506C24.7609 22.8275 24.7505 22.8188 23.7708 23.9172C23.4329 24.2958 23.1245 24.5164 22.599 24.2467C21.0908 23.4725 19.9021 22.3769 19.0583 20.9019C18.8646 20.5633 18.8517 20.2369 19.1413 20.0101C20.0461 19.3009 19.9481 18.4854 19.4893 17.5903C19.3516 17.3217 19.2763 17.0215 19.1685 16.7373C18.7578 15.6552 17.7442 15.4252 16.8979 16.2211C15.8493 17.2072 15.5253 18.7013 16.2102 20.2191C17.2843 22.5987 18.8485 24.6108 21.1471 25.9366C22.2648 26.5812 23.4506 27.1143 24.6321 27.2311Z" fill="#32D651"/>
<path d="M24.6321 27.2311C23.4506 27.1143 22.2648 26.5812 21.1471 25.9366C18.8485 24.6108 17.2842 22.5987 16.2102 20.2191C15.5253 18.7013 15.8493 17.2072 16.8979 16.221C17.7441 15.4252 18.7577 15.6552 19.1685 16.7373C19.2762 17.0215 19.3516 17.3217 19.4892 17.5903C19.9481 18.4854 20.0461 19.3009 19.1412 20.01C18.8517 20.2369 18.8646 20.5633 19.0583 20.9018C19.9021 22.3769 21.0908 23.4725 22.599 24.2466C23.1245 24.5164 23.4329 24.2958 23.7707 23.9172C24.7505 22.8188 24.7609 22.8275 26.0479 23.506C26.2721 23.6241 26.4944 23.7458 26.7174 23.8664C27.8132 24.4593 27.9432 25.4377 27.0449 26.328C26.4831 26.8846 25.5473 27.2576 24.6321 27.2311Z" fill="#F8FBF8"/>
</svg>
